STARTFONT 2.3
FONT -FontForge-Monoton-Book-R-Normal--20-200-72-72-P-136-ISO10646-1
SIZE 20 72 72  4
FONTBOUNDINGBOX 37 31 -3 -8
COMMENT "Generated by fontforge, http://fontforge.sourceforge.net"
COMMENT "Copyright (c) 2011 by vernon adams. All rights reserved."
STARTPROPERTIES 41
FOUNDRY "FontForge"
FAMILY_NAME "Monoton"
WEIGHT_NAME "Book"
SLANT "R"
SETWIDTH_NAME "Normal"
ADD_STYLE_NAME ""
PIXEL_SIZE 20
POINT_SIZE 200
RESOLUTION_X 72
RESOLUTION_Y 72
SPACING "P"
AVERAGE_WIDTH 136
CHARSET_REGISTRY "ISO10646"
CHARSET_ENCODING "1"
FONTNAME_REGISTRY ""
CHARSET_COLLECTIONS "ISO8859-2 ISO8859-9 ISO8859-4 ISO10646-1"
BITS_PER_PIXEL 4
FONT_NAME "Monoton-Regular"
FACE_NAME "Monoton"
COPYRIGHT "Copyright (c) 2011 by vernon adams. All rights reserved."
FONT_VERSION "1.000"
FONT_ASCENT 16
FONT_DESCENT 4
UNDERLINE_POSITION -1
UNDERLINE_THICKNESS 1
X_HEIGHT 14
CAP_HEIGHT 16
DEFAULT_CHAR 1
RAW_ASCENT 799
RAW_DESCENT 200
NORM_SPACE 2
RELATIVE_WEIGHT 40
RELATIVE_SETWIDTH 50
SUPERSCRIPT_X 0
SUPERSCRIPT_Y 6
SUPERSCRIPT_SIZE 11
SUBSCRIPT_X 0
SUBSCRIPT_Y 1
SUBSCRIPT_SIZE 11
AVG_LOWERCASE_WIDTH 147
AVG_UPPERCASE_WIDTH 159
ENDPROPERTIES
CHARS 372
STARTCHAR glyph1.dup1
ENCODING 0
SWIDTH 108 0
DWIDTH 2 0
BBX 1 1 0 0
BITMAP
00
ENDCHAR
STARTCHAR uni0002
ENCODING 2
SWIDTH 108 0
DWIDTH 2 0
BBX 1 1 0 0
BITMAP
00
ENDCHAR
STARTCHAR uni0009
ENCODING 9
SWIDTH 108 0
DWIDTH 2 0
BBX 1 1 0 0
BITMAP
00
ENDCHAR
STARTCHAR uni000A
ENCODING 10
SWIDTH 108 0
DWIDTH 2 0
BBX 1 1 0 0
BITMAP
00
ENDCHAR
STARTCHAR uni000D
ENCODING 13
SWIDTH 108 0
DWIDTH 2 0
BBX 1 1 0 0
BITMAP
00
ENDCHAR
STARTCHAR space
ENCODING 32
SWIDTH 108 0
DWIDTH 2 0
BBX 1 1 0 0
BITMAP
00
ENDCHAR
STARTCHAR exclam
ENCODING 33
SWIDTH 336 0
DWIDTH 7 0
BBX 6 18 0 -1
BITMAP
022112
19A47B
19A47B
19A47B
19A47B
19A47B
19A47B
19A47B
19A47B
19A47B
19A47B
19A47B
178358
000000
1BBBB9
066665
044444
1BBBB9
ENDCHAR
STARTCHAR quotedbl
ENCODING 34
SWIDTH 538 0
DWIDTH 11 0
BBX 10 8 0 9
BITMAP
0121101112
38B550848B
38B550848B
38B550848B
38B550848B
38B550848B
38B550848B
0121101112
ENDCHAR
STARTCHAR numbersign
ENCODING 35
SWIDTH 1014 0
DWIDTH 20 0
BBX 20 19 0 -2
BITMAP
00000019838000A74900
00000047B550038B4700
00000084A920075B8300
0007B8B56B8B9A47B7B9
000553A94A553B74A553
0005577B665568A57552
004AA94A97AA85B87AA1
00000B56B000A47B0000
00001A949000B74A0000
000047B650038A570000
000084A910075A830000
0222B56B222A47B22200
0786A949886B74A78600
2BB87B68BB78A58BB400
25584A945575A8555000
365B56B466A47B365000
001A949000B74A000000
0047B650038A57000000
00112110011211000000
ENDCHAR
STARTCHAR dollar
ENCODING 36
SWIDTH 686 0
DWIDTH 14 0
BBX 14 22 0 -3
BITMAP
00000A08200000
00000907200000
00017ABBB84000
005B5566547B40
0495C75459B581
0B495BAAAA5600
38A4A499845000
56B74B11230000
47B65B88730000
1A94B54459B200
0A4B4689BA4C10
02C49BBA84B580
002BA6554B66B0
00002566A849A0
00006435A849A1
001746764B56B0
02859ABA84B580
385AA768AA4B10
05B8444548A100
000379AA830000
00000908200000
00000908200000
ENDCHAR
STARTCHAR percent
ENCODING 37
SWIDTH 1504 0
DWIDTH 30 0
BBX 30 19 0 -2
BITMAP
00017BBB7100000211200000000000
005B55755B30000B56B00000000000
03A5B646B4B2001A94900000000000
0B4A4BAB4B4A0056B6500000000000
38A4A594B48A10949A100000000000
65A84A2B65B830B65B000013300000
65A8490B55B831A948003AA78B7000
47B487B5A49A156B6405A49AB75B10
0B587A7B5A4B0949A13A5A4645B590
05879444A5A30B65B0A4A5A57B49A2
007948A84A5029A480B84B5BB57B56
0004ABABA30065B7419A47B065A858
000000100000A48A11A948A5A49958
000000000000B65B00B56A564A4B74
0000000000029A470066A48BA4A4B0
0000000000065B73000B49A78B5A40
00000000000A48A00001A94455B400
00000000000B74A00000038A961000
000000000014423000000000000000
ENDCHAR
STARTCHAR ampersand
ENCODING 38
SWIDTH 1029 0
DWIDTH 21 0
BBX 20 17 0 0
BITMAP
00000123333111211100
0005BA88888265B84800
008849ABBBB265B84800
06788455555165B84800
0B578965555165B84800
38A488BBBBB265B84800
46A75A00000065B84800
28A57ABBBBBB95B849BB
0A479855555575B84955
0A669866666675B84966
38A66ABBBBBB95B849BB
46A75B00000055B84900
38A497BBBBBA47B578B5
0C486B8888870B669983
0696A444444407698442
008A4799999800974894
0004ABBBBBBA0005BBB5
ENDCHAR
STARTCHAR quotesingle
ENCODING 39
SWIDTH 257 0
DWIDTH 5 0
BBX 5 8 0 9
BITMAP
012110
38B550
38B550
38B550
38B550
38B550
38B550
012110
ENDCHAR
STARTCHAR parenleft
ENCODING 40
SWIDTH 410 0
DWIDTH 8 0
BBX 8 19 0 -2
BITMAP
00006AB6
003B5574
01B4C742
094B4AA5
0B74B396
38A56B20
47B64A00
47B74A00
47B74A00
47B74A00
47B74A00
47B74A00
37A65A00
19A48894
0B488742
05787585
00976BA6
0006B752
00000463
ENDCHAR
STARTCHAR parenright
ENCODING 41
SWIDTH 408 0
DWIDTH 8 0
BBX 8 19 0 -2
BITMAP
4BB71000
2754B400
246C5A30
3AB5A4B0
3A5A4A83
01A48A56
0074AA47
0074AA47
0074AA47
0074AA47
0074AA47
0074AA47
00849A47
38A56B65
246A57B1
3866A580
4AB75B10
256B8000
26410000
ENDCHAR
STARTCHAR asterisk
ENCODING 42
SWIDTH 664 0
DWIDTH 13 0
BBX 13 13 0 2
BITMAP
00000110000000
000029B4600000
005129B4605100
025B79B49B7300
05B578B494A800
3B58A3B18A4A60
018A4AEB48A200
02A84BDB65B500
3A4A92B16B4860
06A499B4C48900
017B49B4799200
003029B4603000
000018A4500000
ENDCHAR
STARTCHAR plus
ENCODING 43
SWIDTH 601 0
DWIDTH 12 0
BBX 12 10 0 3
BITMAP
000347536000
00055B849000
00055B849000
3BBC5B84DBB3
277A5B84C772
14485B84B441
2AAC5B84DAA3
00055B849000
00055B849000
000235424000
ENDCHAR
STARTCHAR comma
ENCODING 44
SWIDTH 252 0
DWIDTH 5 0
BBX 5 7 0 -3
BITMAP
246320
47B640
47B640
12B640
179830
144B00
2A8100
ENDCHAR
STARTCHAR hyphen
ENCODING 45
SWIDTH 473 0
DWIDTH 9 0
BBX 9 4 0 6
BITMAP
1BBBBBBB60
1777777740
1444444430
1AAAAAAA60
ENDCHAR
STARTCHAR period
ENCODING 46
SWIDTH 255 0
DWIDTH 5 0
BBX 5 4 0 0
BITMAP
288820
144410
299930
2BBB30
ENDCHAR
STARTCHAR slash
ENCODING 47
SWIDTH 447 0
DWIDTH 9 0
BBX 9 19 0 -2
BITMAP
0000012110
000047B560
000084A920
0000B56B00
0001A84900
00047B5600
00084A9200
000B56B000
001A849000
0047B56000
0084A92000
00B56B0000
01A8490000
047B560000
084A920000
0B56B00000
1A84900000
47B5500000
7498200000
ENDCHAR
STARTCHAR zero
ENCODING 48
SWIDTH 843 0
DWIDTH 17 0
BBX 17 18 0 -1
BITMAP
0000049BBB94000000
0002B8457548A10000
002B4A95459A4B1000
00A4B4ABAB94B4A000
066B4B48974B4A7500
0B57B4C414C4A84A00
1A948A200038A48B00
47A64A00000A65A820
56A84900000A46A740
56A84900000A46A730
47A65B00000B65A920
1A9498300057A47B00
0B48A4C647B5894A00
057A4B55756B589300
00A4B47BBB75A58000
001B48A868B75A1000
00019A54445A800000
0000027AA962000000
ENDCHAR
STARTCHAR one
ENCODING 49
SWIDTH 426 0
DWIDTH 9 0
BBX 8 17 0 0
BITMAP
13333332
38888885
5BBBBBB7
25555553
2589CA8A
0046B74A
0046B74A
0046B74A
0046B74A
0046B74A
0046B74A
0046B74A
0046B74A
0046B74A
0046B74A
0046B74A
0046B74A
ENDCHAR
STARTCHAR two
ENCODING 50
SWIDTH 583 0
DWIDTH 12 0
BBX 12 17 0 0
BITMAP
27ABBBA61000
25567655B500
2A65458C5A40
08ABAAA4A4B0
0379A94B48A0
034212A74A91
0000029A58B0
00000A57B490
000085A76B20
00058A5A7600
002A76B4A000
00B5995B1000
085B68930000
298898988820
144444444410
299999999920
3BBBBBBBBB30
ENDCHAR
STARTCHAR three
ENCODING 51
SWIDTH 612 0
DWIDTH 12 0
BBX 12 18 0 -1
BITMAP
37ABBBB82000
24556754A700
2A75556B7870
08BBAAB676B1
036899686B56
04421185B848
000688959948
00044459B865
000799BA4B80
0009BA84A4B1
0004444B4B65
000566B4A848
056544A4B848
0456674A5B66
06ABBBA495B1
2BA8779B5A50
46544446B400
1579AA850000
ENDCHAR
STARTCHAR four
ENCODING 52
SWIDTH 622 0
DWIDTH 12 0
BBX 12 17 0 0
BITMAP
000002112110
000048A4A750
0000B4994C00
0003994B6600
000A4A75C100
002A84C58000
0094B66B1000
01B75C392350
085C57A347B0
1B66B3B047B0
378687756784
266666666665
4BBBBBBBBBBA
388888888887
133333335683
0000000047B0
0000000047B0
ENDCHAR
STARTCHAR five
ENCODING 53
SWIDTH 691 0
DWIDTH 14 0
BBX 14 18 0 -1
BITMAP
02333333333200
07888888888600
0ABBBBBBBBB800
05555555555400
0CA8B555555400
0B849000000000
0B8499AA950000
0B84955546B300
0B8496558A4B30
0B849AAAA4A4B0
0B8497A94B49A2
02111101B56B74
00017445B66A73
002746755B48A1
0375ABBA75B490
475BA778B94B10
05B745445A9100
000479A9620000
ENDCHAR
STARTCHAR six
ENCODING 54
SWIDTH 781 0
DWIDTH 16 0
BBX 16 18 0 -1
BITMAP
000017ABBB840000
0008A5567547B300
00958B64469A4800
066A67BBABA46000
0B57A65998540000
29A4896213200000
47B64A69AA840000
46B74A445548A100
46B74A87558A4B10
46B74A8AAA93B580
46B74A48A94B56B0
47B64A5202B74AA1
29A48974469849A1
0B589856756A65B0
0588859AAA66A660
00985B9779B76A00
0006B745445B8000
0000048AA9610000
ENDCHAR
STARTCHAR seven
ENCODING 55
SWIDTH 631 0
DWIDTH 13 0
BBX 13 17 0 0
BITMAP
13333322112100
3888885A949A10
5BBBBB76B65B00
25555584AA4800
255554B56B7400
000001A949A100
0000047B65B000
0000084A948000
00000B56B65000
00001A949A1000
000047B66B0000
000084A9490000
0000B56B650000
0000A849A10000
00047B56B00000
00074A94900000
000A57B6500000
ENDCHAR
STARTCHAR eight
ENCODING 56
SWIDTH 808 0
DWIDTH 16 0
BBX 16 18 0 -1
BITMAP
00016AABBBB71000
004B55777655B600
03A5C754457C6950
0A4A4BAAAAB585B1
29A4A49AA9595B65
46B75B211194A947
37B56B9888958A57
1B75A6444458B874
085A658889AA4B80
07B57BBBBB94A4B0
1A78B755554B4B74
47B6595666B49A47
47B65B4334A49947
1A94B467774A4B65
0A4B49ABBBA595B0
02B4A976679B5A40
002B84444446B400
000048ABBA951000
ENDCHAR
STARTCHAR nine
ENCODING 57
SWIDTH 782 0
DWIDTH 16 0
BBX 15 18 0 -1
BITMAP
000059BBB9500000
003B6467647B5000
03A4B85458B5A600
0B4A4AAAAA586A20
38A4B48A8586A480
65A94B21285B56B0
65A84B3355A948A0
3994B46763B848B0
0B4B48AAA4B848B0
02B49A98A5B848B0
0019A55454B848B0
00002688639947B0
000006545B4B75A0
0001846754B4B570
001849BBB94B4B10
0294AA877AA4A300
004B8444448A2000
0000379A97300000
ENDCHAR
STARTCHAR colon
ENCODING 58
SWIDTH 262 0
DWIDTH 5 0
BBX 5 10 0 2
BITMAP
1BBB40
188830
144420
188830
000000
155520
166620
1BBB40
188830
033310
ENDCHAR
STARTCHAR semicolon
ENCODING 59
SWIDTH 261 0
DWIDTH 5 0
BBX 5 12 0 0
BITMAP
1BBB40
188830
144420
188830
000000
133220
29B560
29B560
14B560
03B650
183B10
1AB400
ENDCHAR
STARTCHAR less
ENCODING 60
SWIDTH 670 0
DWIDTH 13 0
BBX 13 16 0 0
BITMAP
00000000000130
00000000039B40
00000016B84770
000039A55AA530
016B848B749B50
3A55AA56B94770
18B749B65AA400
246B847B710000
3B55AA45940000
18B844B848B710
3C748B649A5560
004AA55B946B60
000017B748B620
00000004AA5570
00000000017B60
00000000000020
ENDCHAR
STARTCHAR equal
ENCODING 61
SWIDTH 473 0
DWIDTH 9 0
BBX 9 10 0 2
BITMAP
1BBBBBBB60
1888888850
1444444430
1888888850
0000000000
1555555530
1555555530
1BBBBBBB60
1888888850
0333333320
ENDCHAR
STARTCHAR greater
ENCODING 62
SWIDTH 670 0
DWIDTH 13 0
BBX 13 16 0 0
BITMAP
13000000000000
19B61000000000
2A56B930000000
147B748B610000
19B65AA55B9300
2946B947B72BA0
028B749827B830
0000485AA55A70
00017B748B6460
04AA56B946B830
2749B649A55A80
2B947B848B7100
14AA55A9400000
2748B610000000
2B930000000000
11000000000000
ENDCHAR
STARTCHAR question
ENCODING 63
SWIDTH 693 0
DWIDTH 14 0
BBX 14 17 0 0
BITMAP
0016ABBB940000
08A5467647B200
458B75469B4B20
0257BBAAA4B4A0
001569984B49A1
00004213B56A74
00111124B56B74
00B64A674B48A1
00B64A9A93B3A0
00B64A67993B20
00B64A4447B200
00B64A78740000
00853800000000
02888800000000
01444400000000
02999910000000
02BBBB10000000
ENDCHAR
STARTCHAR at
ENCODING 64
SWIDTH 1076 0
DWIDTH 22 0
BBX 21 20 0 -2
BITMAP
0000000157886300000000
000003AA644559B6000000
00008A48BA89BB66B20000
000967A56ABA846A4A3000
0086977B510038B4A4A200
02A679703899611A5A4A00
0A3B6708A4456B50B4A830
0A65C0787B88B5A339A580
47A570B687BA4B490B56B0
55B6438A4900B65A0A47B0
55B6437B5500B56B0948B0
47B571A85998B56B0947B0
1A75B0859865A47B7C56B0
0B3B7609845475B544B490
04977A6037981B47A83B20
00A5A78B522231AB9AB200
001B68A568987000210000
0001AA48BBBBB200000000
000004BB75556300000000
0000000145655200000000
ENDCHAR
STARTCHAR A
ENCODING 65
SWIDTH 936 0
DWIDTH 19 0
BBX 19 17 0 0
BITMAP
00000011211200000000
0000008B84B740000000
000000B94994A0000000
000005658A48A1000000
00000A47B57B57000000
0000299485B65B000000
000084B84A84A8400000
0000B65B3A4994A00000
00057B57B48A48A10000
000A48A490B56B570000
002A94A93075B65B0000
0084B75B676A84A83000
00B66B66444A49949000
047B57B6AAA77B48B100
0A49A4AAAAA8B66B5600
1A94A831111175B75B00
75B75B0000002A94A830
ENDCHAR
STARTCHAR B
ENCODING 66
SWIDTH 862 0
DWIDTH 17 0
BBX 17 17 0 0
BITMAP
033333333321000000
1C8888888889B70000
198BBBBBBBBA66B100
19A2555555546B5900
19A495555558A49920
19A46CBBBBBA58A570
19A46B0000065B8480
19A46B8BBBBB58A560
19A46B455557B57A10
19A46B466667B58A10
19A46B8BBBBB49A570
19A46B0000075A8480
19A46B8BBBB967A570
19A46B68888A958A20
19A46B344444895900
19A46B79999848B100
19A46B8BBBBBB50000
ENDCHAR
STARTCHAR C
ENCODING 67
SWIDTH 852 0
DWIDTH 17 0
BBX 17 18 0 -1
BITMAP
0000015ABBB9400000
00006B6457548B2000
000975B8546AA4A500
0086975ABAB94A5A30
039869858974A5A320
0A498698214A591000
1A94A7500000700000
56B75B000000000000
65A958000000000000
65A958000000000000
46B65B000000000000
1A84B5700001900000
0A4A686A546B4B2100
02A687A46755B4B430
00687A49BBB74B4B20
000794AA778B84B300
00004B844445A91000
000000379A96200000
ENDCHAR
STARTCHAR D
ENCODING 68
SWIDTH 886 0
DWIDTH 18 0
BBX 18 17 0 0
BITMAP
033333333320000000
1C888888889B920000
198BBBBBBBA74B3000
19A255555545B4B300
19A49555557B5B4B00
19A46CBBBBB5B4B650
19A46B00000B3A84B0
19A46B0000038A47B0
19A46B000000A849A1
19A46B000001A849A1
19A46B0000047B57B0
19A46B00002B4993A0
19A46ABBBBA4B4A740
19A4B888889A4B4B00
19A344444447B4B200
1969999999856B2000
1DBBBBBBBBBB600000
ENDCHAR
STARTCHAR E
ENCODING 69
SWIDTH 706 0
DWIDTH 14 0
BBX 14 17 0 0
BITMAP
02211233333331
19A46C88888882
19A46CBBBBBBB3
19A46B55555552
19A46B55555552
19A46B00000000
19A46B00000000
19A46CBBB70000
19A46C77740000
19A46B44430000
19A46CAAA70000
19A46B00000000
19A46B00000000
19A46C88888882
19A46B44444441
19A46C99999993
19A46CBBBBBBB3
ENDCHAR
STARTCHAR F
ENCODING 70
SWIDTH 683 0
DWIDTH 14 0
BBX 13 17 0 0
BITMAP
02211233333320
19A46C88888870
19A46CBBBBBBA0
19A46B55555550
19A46B55555550
19A46B00000000
19A46B00000000
19A46B22222210
19A46C88888850
19A46CBBBBBB60
19A46B55555530
19A46C66666630
19A46B00000000
19A46B00000000
19A46B00000000
19A46B00000000
19A46B00000000
ENDCHAR
STARTCHAR G
ENCODING 71
SWIDTH 908 0
DWIDTH 18 0
BBX 18 18 0 -1
BITMAP
0000015ABBB9400000
00006B6457548B2000
000975B8546AA4A500
0086975ABAB94A5A30
039869858974A5A320
0A498698214A591000
1A94A7500000700000
56B75B000000000000
65A958000000424522
65A948000000948B55
46B65B000000948B55
1A94B8500000948B55
0A49869A5459D48B55
039779946765B48B55
00867949BBB9B48B55
000895AA768AE48B55
00004B845555C48B55
00000048AA97300000
ENDCHAR
STARTCHAR H
ENCODING 72
SWIDTH 901 0
DWIDTH 18 0
BBX 18 17 0 0
BITMAP
022112000000211220
19A46B000000B74A91
19A46B000000B74A91
19A46B000000B74A91
19A46B000000B74A91
19A46B000000B74A91
19A46B000000B74A91
19A46CBBBBBBC74A91
19A46C777777C74A91
19A46B444444B74A91
19A46CAAAAAAC74A91
19A46B000000B74A91
19A46B000000B74A91
19A46B000000B74A91
19A46B000000B74A91
19A46B000000B74A91
19A46B000000B74A91
ENDCHAR
STARTCHAR I
ENCODING 73
SWIDTH 338 0
DWIDTH 7 0
BBX 6 17 0 0
BITMAP
022112
19A46B
19A46B
19A46B
19A46B
19A46B
19A46B
19A46B
19A46B
19A46B
19A46B
19A46B
19A46B
19A46B
19A46B
19A46B
19A46B
ENDCHAR
STARTCHAR J
ENCODING 74
SWIDTH 434 0
DWIDTH 9 0
BBX 8 18 0 -1
BITMAP
00012112
0029B56B
0029B56B
0029B56B
0029B56B
0029B56B
0029B56B
0029B56B
0029B56B
0029B56B
0029B56B
0028B55B
23A5A74A
474A4B56
6BB5A5B1
368B5A40
2446B400
6A961000
ENDCHAR
STARTCHAR K
ENCODING 75
SWIDTH 815 0
DWIDTH 16 0
BBX 16 17 0 0
BITMAP
0221120000202112
19A46B0001B66B48
19A46B00075B57B1
19A46B001B66B580
19A46B0085B56B10
19A46B01B75B5700
19A46B084B66B100
19A46B1A75B57000
19A46B84B66B1000
19A46B75B57A1000
19A46B1B66B48000
19A46B075B57A200
19A46B00B57B4900
19A46B0066B48A20
19A46B000B57B490
19A46B00066B48A2
19A46B0000B57A49
ENDCHAR
STARTCHAR L
ENCODING 76
SWIDTH 604 0
DWIDTH 12 0
BBX 12 17 0 0
BITMAP
022112000000
19A46B000000
19A46B000000
19A46B000000
19A46B000000
19A46B000000
19A46B000000
19A46B000000
19A46B000000
19A46B000000
19A46B000000
19A46B000000
19A46B000000
19A46C888883
19A46B444442
19A46C999994
19A46CBBBBB5
ENDCHAR
STARTCHAR M
ENCODING 77
SWIDTH 920 0
DWIDTH 18 0
BBX 18 17 0 0
BITMAP
021120000000011211
1E4A840000000B48A7
1C994B00000066B4C7
19A4A8400001B57A57
194994B000075B4947
19894B75001B66B847
19A2A85B0084B57A47
19A394B661B65B4A47
19A47B75B74B679A47
19A4685B5775B1AA47
19A466B66B5684AA47
19A46A75B58B74AA47
19A46B1955A474AA47
19A46B00000074AA47
19A46B00000074AA47
19A46B00000074AA47
19A46B00000074AA47
ENDCHAR
STARTCHAR N
ENCODING 78
SWIDTH 877 0
DWIDTH 18 0
BBX 17 17 0 0
BITMAP
021120200001121120
1F4B67A200056B8490
1BB66B4A00056B8490
1976B4A750056B8490
195B4985B1056B8490
19A4984B58056B8490
19A294B58A356B8490
19A46B57A4B56B8490
19A4667A4B675B8490
19A468B4A76B1B8490
19A46B3A75B4998490
19A46B085B49958490
19A46B01B5894B7490
19A46B0058A4B68390
19A46B000A4B67B390
19A46B0002A66B4B90
19A46B000075B4A890
ENDCHAR
STARTCHAR O
ENCODING 79
SWIDTH 933 0
DWIDTH 19 0
BBX 19 18 0 -1
BITMAP
0000015ABBB840000000
00006B6456548B300000
000975B85459A4A50000
0086975ABAB94A5A3000
039869858974B5A4B000
0A498698214B5A4B6600
1A94A7500000A4B74A00
56B75B0000001A948B00
65A9580000000B74A910
65A9580000000B74AA10
46B65B00000029A48B00
1A84B5700001B4A84A00
0A4A686A546A4B3B7500
02A687A46755B4B3B000
00687A49BBB75B4B2000
000794AA778B84B30000
00004B844445A9100000
000000379A9610000000
ENDCHAR
STARTCHAR P
ENCODING 80
SWIDTH 850 0
DWIDTH 17 0
BBX 17 17 0 0
BITMAP
033333333321000000
1C888888888AA40000
198BBBBBBBA9497000
19A255555554978500
19A49555556A785B00
19A46CBBBBB794A830
19A46B00000A47A650
19A46B11111B57B650
19A46B6AAA95A49920
19A46B6AAAAB4B4B00
19A46B344446B4B300
19A46B4777755C5000
19A46B7BBBBB710000
19A46B000000000000
19A46B000000000000
19A46B000000000000
19A46B000000000000
ENDCHAR
STARTCHAR Q
ENCODING 81
SWIDTH 937 0
DWIDTH 19 0
BBX 19 20 0 -3
BITMAP
0000015ABBB840000000
00006B6456548B300000
000975B85459A4A50000
0086975ABAB94A5A3000
039869858974B5A4B000
0A498698214B5A4B6600
1A94A7500000A4B74A00
56B75B0000001A948B00
65A9580000000B74A910
65A9580000060B74AA10
46B65B00019579A48B00
1A84B5701B65B4A84A00
0A4A686A577A4B3B7500
02A687A46755B4B3B000
00687A49BBB75B4B2000
000794AA778B84B50000
00004B844445A9593000
000000379A9637A46000
0000000000000A430000
00000000000001000000
ENDCHAR
STARTCHAR R
ENCODING 82
SWIDTH 843 0
DWIDTH 17 0
BBX 17 17 0 0
BITMAP
033333333321000000
1C888888888AA40000
198BBBBBBBA9497000
19A255555554979400
19A49555556A785B00
19A46CBBBBB794A920
19A46B00000A56A740
19A46B57778B75B830
19A46B344445A57B00
19A46B8AAA964A6800
19A46B8AAAAB85B100
19A46B344456BB1000
19A46B578CD97B0000
19A46B000B75AA2000
19A46B000859A57000
19A46B00038B66B000
19A46B0000B75A9200
ENDCHAR
STARTCHAR S
ENCODING 83
SWIDTH 682 0
DWIDTH 14 0
BBX 13 18 0 -1
BITMAP
00027ABBB84000
006B5576547B40
0596C75569A480
0B586BAAAA4600
47B49599845000
65B84A11230000
56B74C88730000
29A4B54459B100
0B4B4789B94B00
03B4ABBA84B670
003B96554A75B0
000025679948B0
000164359948B0
002746765A65B0
03759ABA84B670
475BA768AA4B00
05B7444449A100
000479AA730000
ENDCHAR
STARTCHAR T
ENCODING 84
SWIDTH 591 0
DWIDTH 12 0
BBX 12 17 0 0
BITMAP
133333333330
388888888881
4BBBBBBBBBB1
255555555551
255B8AC98551
000948B65000
000948B65000
000948B65000
000948B65000
000948B65000
000948B65000
000948B65000
000948B65000
000948B65000
000948B65000
000948B65000
000948B65000
ENDCHAR
STARTCHAR U
ENCODING 85
SWIDTH 905 0
DWIDTH 18 0
BBX 18 18 0 -1
BITMAP
012112000000211211
38B65B000000B46B73
38B65B000000B46B73
38B65B000000B46B73
38B65B000000B46B73
38B65B000000B46B73
38B65B000000B46B73
38B65B000000B46B73
38B65B000000B46B73
38B65B000000B46B73
29B56B000000B65B83
0B84A85000058A48A1
0A4985A9549A5894B0
049869847748A59840
0085975ABBA57A5800
000975B9779B579000
00005B744447B60000
00000058AA85100000
ENDCHAR
STARTCHAR V
ENCODING 86
SWIDTH 940 0
DWIDTH 19 0
BBX 19 17 0 0
BITMAP
21211200000002112110
66B56B0000002994A930
1B75B750000084B75B00
094A84A00000B66B6600
039A49A200047B57B100
00B57B48000A49A49000
0066B66B002A94A83000
001B74B74075B75B0000
00094A94A0B66B560000
00038A48A57B48A10000
0000B57B2A49A4900000
000065B65A84A8300000
00001A8485B75B000000
00000948B56B56000000
000003858B48A1000000
000000BA499490000000
0000007B84A840000000
ENDCHAR
STARTCHAR W
ENCODING 87
SWIDTH 1161 0
DWIDTH 23 0
BBX 23 17 0 0
BITMAP
112211000211120001121120
65B74A0038A56D40075A8490
29A47B0074A94C800A47B660
0B75A830B56B66B00B849920
0948A471A849A99247B56B00
056B74B47B55BB5684A94900
02A948A84994A84AB56B6500
00B65B3B56B7E47BA949A100
00949A2A949A94B76B65B000
0056B686B65E48AA49A48000
001A93949A4E5B6D65B74000
000B56B65B769A49A48B0000
0008489A48B0B5C5B75A0000
0004775B74A094F48A570000
0000BA48B57057B74B830000
0000BB74A8301D8A47B00000
000078A57B000B5A84A00000
ENDCHAR
STARTCHAR X
ENCODING 88
SWIDTH 876 0
DWIDTH 18 0
BBX 18 17 0 0
BITMAP
202112000002112020
4894B5800076B4A750
0A4B58A302B66A4A00
01B67A4B0A4B67A200
0067A4B677A4B67000
000B4A65B5894B0000
0002A7594B48930000
0000857984B4900000
000007B4985B100000
0000075B4A86800000
00002A76B4A5A30000
0000A4B66B4A4B0000
00067A4B67A4B67000
001B57A4B84A66B200
0094B58932A76B4A00
04894B580075B4A750
0B4985B1000B4985B1
ENDCHAR
STARTCHAR Y
ENCODING 89
SWIDTH 789 0
DWIDTH 16 0
BBX 16 17 0 0
BITMAP
2112110000111211
56A8590000A65A92
0A759920047A7590
065A85900A66A830
00A7599237A65A00
0075A948A56A7300
001A85958A66A000
0007598957A74000
00019949A56A0000
000084A58A650000
00001A9957A00000
00000A59A5600000
00000848B5500000
00000848B5500000
00000848B5500000
00000848B5500000
00000848B5500000
ENDCHAR
STARTCHAR Z
ENCODING 90
SWIDTH 854 0
DWIDTH 17 0
BBX 17 17 0 0
BITMAP
133333333333333310
288888888888889F30
2BBBBBBBBBBB55B420
155555555531985B20
15555555545B4A7530
2BBBBBB82985B4A710
00000004B4975B4A30
000001985B4A76B200
00004B4985B4A70000
001985B4A86B200000
04B4985B4A70000000
385B4986B300000000
1985B4A718BBBBBB30
24985B478888888820
2B5A72344444444410
15B359999999999920
3FBBBBBBBBBBBBBB30
ENDCHAR
STARTCHAR bracketleft
ENCODING 91
SWIDTH 320 0
DWIDTH 6 0
BBX 6 19 0 -2
BITMAP
1CBBB9
195776
19A444
19A4C8
19A470
19A470
19A470
19A470
19A470
19A470
19A470
19A470
19A470
19A470
19A471
19A398
19AAA9
1B4444
066665
ENDCHAR
STARTCHAR backslash
ENCODING 92
SWIDTH 448 0
DWIDTH 9 0
BBX 9 19 0 -2
BITMAP
1111000000
65B7400000
28A4700000
0B75B00000
0A48B00000
065B740000
028A470000
00B75B0000
00A48B0000
0065B74000
0028A47000
000B75B000
000A48B000
00065B7400
00029A4700
0000B75B00
0000A48B00
000065B740
0000279460
ENDCHAR
STARTCHAR bracketright
ENCODING 93
SWIDTH 319 0
DWIDTH 6 0
BBX 6 19 0 -2
BITMAP
4BBBB7
377748
244B48
4AA948
00A948
00A948
00A948
00A948
00A948
00A948
00A948
00A948
00A948
00A948
12A948
496948
4AAD48
244478
366663
ENDCHAR
STARTCHAR asciicircum
ENCODING 94
SWIDTH 475 0
DWIDTH 10 0
BBX 9 9 0 6
BITMAP
0000010000
00099A2000
001AB48000
006676B000
00B57B7400
029A294A00
084A039A10
0B7500B570
3570005370
ENDCHAR
STARTCHAR underscore
ENCODING 95
SWIDTH 511 0
DWIDTH 10 0
BBX 10 4 0 -4
BITMAP
1BBBBBBBB3
1999999993
0444444441
1888888883
ENDCHAR
STARTCHAR grave
ENCODING 96
SWIDTH 472 0
DWIDTH 9 0
BBX 9 5 0 14
BITMAP
01A5000000
2A47B50000
018B57B500
00018B5650
0000017400
ENDCHAR
STARTCHAR a
ENCODING 97
SWIDTH 832 0
DWIDTH 17 0
BBX 16 16 0 -1
BITMAP
0000014665100000
00019B7556AB3000
003C57BBAB94A600
01C4B569974A6950
094B4B6444A695B1
1B85B4B88B694B66
56B65B200094A84A
65A948000037A55B
64A948000029B46B
46B65B000029B46B
1B75B4A65859B46B
095A4B655549B46B
01B5A569A739B46B
001B56AAAA59B46B
00017B755759B46B
0000003553000000
ENDCHAR
STARTCHAR b
ENCODING 98
SWIDTH 720 0
DWIDTH 14 0
BBX 14 15 0 0
BITMAP
01111111110000
1DAAAAAAAAB600
197AAAAAA95690
19A24444447974
19A4A777789919
19A4600000B74A
19A47BBBBB5B28
19A4777778C4B2
19A474444597A2
19A479999A7A18
19A4600000B74A
19A479999A8A09
19A47444448794
19A47888873890
19A45BBBBAB600
ENDCHAR
STARTCHAR c
ENCODING 99
SWIDTH 736 0
DWIDTH 15 0
BBX 15 16 0 -1
BITMAP
0000038AB9610000
0002A845545B7000
003B4AA668B66A00
01B4B49ABB66A410
094B4B47856A3000
1A84B4B537920000
56B65C1000100000
65A9480000000000
65A9480000000000
46B65C1000100000
1B85B4C648930000
094B4B4674794000
01B4B48ABA579510
003B49A779B67900
0002A944446B6000
00000279A9510000
ENDCHAR
STARTCHAR d
ENCODING 100
SWIDTH 833 0
DWIDTH 17 0
BBX 16 15 0 0
BITMAP
0111111110000000
1DAAAAAAAAB82000
197AAAAAA964B500
19A24444455B5950
19A4A77778B595B1
19A46BBBBA5A5B57
19A46B0000A4B65B
19A46B000029A47B
19A46B000038B47B
19A46B0001A4B75B
19A46ABBBA4A5B57
19A4B88889B5A5B1
19A34444456B5A50
196999999855B500
1DBBBBBBBBB81000
ENDCHAR
STARTCHAR e
ENCODING 101
SWIDTH 666 0
DWIDTH 13 0
BBX 13 15 0 0
BITMAP
01100111111110
19A46CAAAAAA50
19A46CAAAAAA60
19A46B44444420
19A46C77777740
19A46B00000000
19A46CBBBBBB20
19A46C66666610
19A46B55555510
19A46CBBBBBB20
19A46B00000000
19A46C88888840
19A46B44444420
19A46C99999950
19A46CBBBBBB60
ENDCHAR
STARTCHAR f
ENCODING 102
SWIDTH 625 0
DWIDTH 13 0
BBX 12 15 0 0
BITMAP
011001111111
19A46CAAAAA8
19A46CAAAAA8
19A46B444444
19A46C777776
19A46B000000
19A46C666662
19A46B444442
19A46CBBBBB4
19A46C999993
19A46B222221
19A46B000000
19A46B000000
19A46B000000
19A46B000000
ENDCHAR
STARTCHAR g
ENCODING 103
SWIDTH 827 0
DWIDTH 17 0
BBX 16 16 0 -1
BITMAP
0000038AB9610000
0002A845545B7000
003B4AA668B66A00
01B4B49ABB66A410
094B4B47856A3000
1A84B4B537920000
56B65C1000100000
65A9480000011111
65A948000038B65B
46B65C100038B65B
1B85B4C646C8B65B
094B4B467578B65B
01B4B48ABB98B65B
003B49A778C8B65B
0002A9444478B65B
00000279A9510000
ENDCHAR
STARTCHAR h
ENCODING 104
SWIDTH 830 0
DWIDTH 17 0
BBX 16 15 0 0
BITMAP
0110010000001001
19A46B000047B64A
19A46B000047B64A
19A46B000047B64A
19A46B000047B64A
19A46B222257B64A
19A46C8888A7B64A
19A46CBBBBC7B64A
19A46B555577B64A
19A46C666687B64A
19A46B000047B64A
19A46B000047B64A
19A46B000047B64A
19A46B000047B64A
19A46B000047B64A
ENDCHAR
STARTCHAR i
ENCODING 105
SWIDTH 337 0
DWIDTH 7 0
BBX 6 15 0 0
BITMAP
011001
19A46B
19A46B
19A46B
19A46B
19A46B
19A46B
19A46B
19A46B
19A46B
19A46B
19A46B
19A46B
19A46B
19A46B
ENDCHAR
STARTCHAR j
ENCODING 106
SWIDTH 393 0
DWIDTH 8 0
BBX 7 18 0 -3
BITMAP
00100110
00B849B0
00B849B0
00B849B0
00B849B0
00B849B0
00B849B0
00B849B0
00B849B0
00B849B0
00B849B0
039A47B0
695A84A0
49A4A750
247A4A00
5847A100
5BA50000
10000000
ENDCHAR
STARTCHAR k
ENCODING 107
SWIDTH 801 0
DWIDTH 16 0
BBX 16 15 0 0
BITMAP
0110010000100101
19A46B0002A84B66
19A46B000A4A84B0
19A46B003894A840
19A46B00B4994A00
19A46B057A499300
19A46B0B57A49000
19A46B75B57A1000
19A46B75B57B1000
19A46B1B57B49000
19A46B066B489200
19A46B00B48A4A00
19A46B0048A4A840
19A46B000A4984B0
19A46B0002994B75
ENDCHAR
STARTCHAR l
ENCODING 108
SWIDTH 583 0
DWIDTH 12 0
BBX 11 15 0 0
BITMAP
011001000000
19A46B000000
19A46B000000
19A46B000000
19A46B000000
19A46B000000
19A46B000000
19A46B000000
19A46B000000
19A46B000000
19A46B000000
19A46C888880
19A46B444440
19A46C999990
19A46CBBBBB0
ENDCHAR
STARTCHAR m
ENCODING 109
SWIDTH 1167 0
DWIDTH 23 0
BBX 23 15 0 0
BITMAP
000038ABA72016ABB9400000
001A945555BBB655547B3000
01B49A767B97CB8679B4B300
085B49BBB85A7ABBBA4A4B00
0B75B56865A66D5874B4A840
29A47B425A849A833A49A570
38B65B000B64B920064B9480
38B65B000B64B920064B9480
38B65B000B64B920064B9480
38B65B000B64B920064B9480
38B65B000B64B920064B9480
38B65B000B64B920064B9480
38B65B000B64B920064B9480
38B65B000B64B920064B9480
38B65B000B64B920064B9480
ENDCHAR
STARTCHAR n
ENCODING 110
SWIDTH 787 0
DWIDTH 16 0
BBX 15 15 0 0
BITMAP
0100101000010010
1E4A76B1000B46B0
1CA85B49000B46B0
1994B58A300B46B0
195B67A4B00B46B0
19A76B4A750B46B0
19A1B4995B0B46B0
19A47894B57B46B0
19A46A4B66B846B0
19A462A75B4A46B0
19A46084B49976B0
19A4601B58A4B3B0
19A460066B4B76B0
19A46000B4A85BB0
19A460004994B5C0
ENDCHAR
STARTCHAR o
ENCODING 111
SWIDTH 833 0
DWIDTH 17 0
BBX 16 16 0 -1
BITMAP
0000038ABA610000
0002A845545B7000
003B4AA668B76A00
01B4B49AAB66A580
094B4B47856A58A2
1A84B4B537A67A48
56B65C100067B56B
65A94800000B848B
65A94800001B948B
46B65C100076B56B
1B85B4C648A67A48
094B4B46747967A2
01B4B48AAA579670
003B49A778B67900
0002A944446B6000
00000279A9510000
ENDCHAR
STARTCHAR p
ENCODING 112
SWIDTH 781 0
DWIDTH 16 0
BBX 15 15 0 0
BITMAP
0111111111000000
1DAAAAAAAAB92000
197AAAAAAA74B400
19A24444445C4B20
19A4A77777B4B490
19A46BBBBB5B57B0
19A46B0002A948B0
19A46B6AAA4B56B0
19A46B699AB4B580
19A46B34447C4C20
19A46B577755C400
19A46B7BBBB71000
19A46B0000000000
19A46B0000000000
19A46B0000000000
ENDCHAR
STARTCHAR q
ENCODING 113
SWIDTH 788 0
DWIDTH 16 0
BBX 15 18 0 -3
BITMAP
0000000111111110
00018BAAAAAAAAC0
004B469AAAAAA4B0
03B5B554444456B0
0B3A5B87777C46B0
39A4B5ABBB8A46B0
65B84A00019A46B0
74A95700019A46B0
56B75B43339A46B0
2A85B478869A46B0
0A4B49BBB79A46B0
02C4A965549A46B0
002B8455549A46B0
000059BBB79A46B0
00000000019A46B0
00000000019A46B0
00000000019A46B0
0000000000110110
ENDCHAR
STARTCHAR r
ENCODING 114
SWIDTH 831 0
DWIDTH 17 0
BBX 16 15 0 0
BITMAP
0111111111100000
1DAAAAAAAAAB9200
197AAAAAAAA84B50
19A244444445B5B2
19A4A777777B5B49
19A46BBBBBB5B47B
19A46B12223B948B
19A46B799984B56B
19A46B8BBBBA4B58
19A46B455558B4C1
19A46B5666646C30
19A46B8BCCCEB400
19A46B0066A95900
19A46B001A958B10
19A46B000A58B660
ENDCHAR
STARTCHAR s
ENCODING 115
SWIDTH 683 0
DWIDTH 14 0
BBX 13 16 0 -1
BITMAP
00002566410000
004A965569B600
05A4ABBBBA56A0
1B594799747A10
56B59322378000
65B84000000000
38A49ABBA83000
0B4AA765449800
01B744556A7760
00048ABAA785B0
000000000949A0
002B74336B57B0
13B5578756B490
3B56ABBBB75B10
017B97668B8100
00002454300000
ENDCHAR
STARTCHAR t
ENCODING 116
SWIDTH 588 0
DWIDTH 12 0
BBX 12 15 0 0
BITMAP
011111111110
4AAAAAAAAAA1
4AAAAAAAAAA1
244444444441
377888988771
000948B65000
000948B65000
000948B65000
000948B65000
000948B65000
000948B65000
000948B65000
000948B65000
000948B65000
000948B65000
ENDCHAR
STARTCHAR u
ENCODING 117
SWIDTH 795 0
DWIDTH 16 0
BBX 16 16 0 -1
BITMAP
0010010000100110
38B65B0000B74AA1
38B65B0000B74AA1
38B65B0000B74AA1
38B65B0000B74AA1
38B65B0000B74AA1
38B65B0000B74AA1
38B65B0000B74AA1
38B65B0000B74AA1
29A56B0001A858B0
0B75B4A45B3B65B0
094B5B4664B4B570
02B5A4ABB94B4B00
004B4A977AA4B300
0003B844449A2000
0000048AA8300000
ENDCHAR
STARTCHAR v
ENCODING 118
SWIDTH 855 0
DWIDTH 17 0
BBX 17 15 0 0
BITMAP
101101000000010010
65B66B00000A48A480
1A84B740002994A920
094994A00084A84B00
038A48A100B65B6600
00B56B57056B57B100
0075B65B0A48A49000
001A84A85A94A93000
000A499484B75B0000
00047B47B66B660000
0000B5667B57B10000
0000759A49A4900000
00001A2A94A8300000
00000A95B75B000000
000004D66B56000000
ENDCHAR
STARTCHAR w
ENCODING 119
SWIDTH 1129 0
DWIDTH 23 0
BBX 22 16 0 -1
BITMAP
0010010000100100001001
38B65B0038B65B0038B65B
38B65B0038B65B0038B65B
38B65B0038B65B0038B65B
38B65B0038B65B0038B65B
38B65B0038B65B0038B65B
38B65B0038B65B0038B65B
38B65B0038B65B0038B65B
38B65B0038B65B0038B65B
38A65B0037B65B0037B65B
19A49898B4B85E98B4B849
0B5898455B5B7A455B4B65
0579847864B5D58864B4B0
00975ABBB95D7ABBB94B30
0005B8557BA6C8656AA200
0000035641000356410000
ENDCHAR
STARTCHAR x
ENCODING 120
SWIDTH 790 0
DWIDTH 16 0
BBX 16 15 0 0
BITMAP
1010100001010100
4985B4B01B5985B2
094B4A66A4C4A760
01B49857985B3B00
0058947C4A76A300
000A4A95B3B58000
0002B4A76A4B0000
00004B4B67940000
000076B4B4A40000
0002B67A4C3C1000
000B3B5985B58000
0067A4B4A867A300
01B5985B575B4B00
0A4C4A7694B4B670
5895B3B01C4976B2
ENDCHAR
STARTCHAR y
ENCODING 121
SWIDTH 733 0
DWIDTH 15 0
BBX 15 15 0 0
BITMAP
1001000001001000
65A859000A65A920
0A75A83046A75900
065A75A0A66A8200
00A65A777A759000
0065B75A56A73000
000A6678A66A0000
00055A957A740000
0000A38A66A00000
00005C57A6500000
00000B848A000000
00000B848B000000
00000B848B000000
00000B848B000000
00000B848B000000
ENDCHAR
STARTCHAR z
ENCODING 122
SWIDTH 714 0
DWIDTH 14 0
BBX 14 15 0 0
BITMAP
01111111001010
2AAAAAA7B4A675
2AAAAA885B3B56
1444444B67A4A0
177777B4B49830
0000067A4B4900
00001B5985B100
0000A4C3A75000
0004985B3A0000
000C4A67A20000
0086B3B5800000
02B67A4B588884
0B4B4985444442
57A4B4A5999995
44985B5BBBBBB6
ENDCHAR
STARTCHAR braceleft
ENCODING 123
SWIDTH 396 0
DWIDTH 8 0
BBX 8 22 0 -5
BITMAP
00018BB4
001B4573
00A3B642
01A84B94
037B6500
047B6400
047B6400
047B6400
037B7400
5A759200
245B6000
37B4B000
5B4A9200
047B7400
047B6400
047B6400
037B6400
029A4A52
00B4A462
004A4AB4
0004B973
00000231
ENDCHAR
STARTCHAR bar
ENCODING 124
SWIDTH 266 0
DWIDTH 5 0
BBX 5 20 0 -3
BITMAP
022110
19A470
19A470
19A470
19A470
19A470
19A470
19A470
19A470
19A470
19A470
19A470
19A470
19A470
19A470
19A470
19A470
19A470
19A470
011010
ENDCHAR
STARTCHAR braceright
ENCODING 125
SWIDTH 396 0
DWIDTH 8 0
BBX 8 22 0 -5
BITMAP
5BB71000
3755B100
246B4900
49B48A00
0065A820
0056B830
0056B830
0056B830
0047B5A3
001B6842
00078594
00286BB4
0046A520
0056B830
0056B830
0056B830
0055B830
25B49910
364A3A00
5BA4A300
379B4000
13200000
ENDCHAR
STARTCHAR asciitilde
ENCODING 126
SWIDTH 665 0
DWIDTH 13 0
BBX 13 4 0 11
BITMAP
018BBBBBB16370
0B44555556B480
29975555553B20
35808BBBBB9300
ENDCHAR
STARTCHAR uni00A0
ENCODING 160
SWIDTH 108 0
DWIDTH 2 0
BBX 1 1 0 0
BITMAP
00
ENDCHAR
STARTCHAR exclamdown
ENCODING 161
SWIDTH 336 0
DWIDTH 7 0
BBX 6 18 0 -1
BITMAP
022112
19A47B
19A47B
19A47B
19A47B
19A47B
19A47B
19A47B
19A47B
19A47B
19A47B
19A47B
178358
000000
1BBBB9
066665
044444
1BBBB9
ENDCHAR
STARTCHAR cent
ENCODING 162
SWIDTH 708 0
DWIDTH 14 0
BBX 14 20 0 -2
BITMAP
000000A0820000
000000A0920000
00000126330000
0002AA6457B600
003B48BAAB66B1
02B4B479856B46
094B4B5447B450
1A84B4B89A4300
46B65B10032000
65B94800000000
55B84A00000000
29A498712B3000
0B58966A94A410
058967B9AB4A52
00967B6458B4A5
0007A457646B40
000028BBBA5100
00000090720000
000000A0920000
00000070610000
ENDCHAR
STARTCHAR sterling
ENCODING 163
SWIDTH 689 0
DWIDTH 14 0
BBX 14 17 0 0
BITMAP
00016ABBB95000
003B5567546B60
03B4C75458B672
0A4A4BAAAA6610
1A94B499855000
38B56B21230000
38B65B00000000
38B65B67777300
38B65B44444200
38B65B89999300
38B65B9AAAA400
38B65B00000000
38B65B00000000
38B65D88888300
38B65C44444200
38B65D99999300
38B65DBBBBB400
ENDCHAR
STARTCHAR currency
ENCODING 164
SWIDTH 715 0
DWIDTH 14 0
BBX 14 16 0 -1
BITMAP
002B0000008520
24B59000059864
2B59779A895986
0597B54449A590
006A5B87B87900
00A4B000076B10
00B8300000B740
019A100000B560
00A9200000B650
00B58000039920
006798326B4A00
0399758965B760
1B497BBABA66A4
44B4B000077A46
024B100000A440
00020000001200
ENDCHAR
STARTCHAR yen
ENCODING 165
SWIDTH 796 0
DWIDTH 16 0
BBX 16 17 0 0
BITMAP
1112110000112211
47A7590000A66A83
0A66A830038A65A0
056A75900957A740
00A65A8228A66A00
0056A859957A6500
000A75A49A56A000
00065A7958A65000
0000A849957A0000
000075A59A560000
00001AA958A00000
0000085A94800000
007BB949A49BB600
00588849A4888400
00233849A4733200
00000749A4700000
00000749A4700000
ENDCHAR
STARTCHAR brokenbar
ENCODING 166
SWIDTH 263 0
DWIDTH 5 0
BBX 5 20 0 -3
BITMAP
012110
29B560
29B560
29B560
29B560
29B560
29B560
29B560
156330
000000
000000
157340
29B560
29B560
29B560
29B560
29B560
29B560
29B560
011110
ENDCHAR
STARTCHAR section
ENCODING 167
SWIDTH 108 0
DWIDTH 2 0
BBX 1 1 0 0
BITMAP
00
ENDCHAR
STARTCHAR dieresis
ENCODING 168
SWIDTH 556 0
DWIDTH 11 0
BBX 11 3 0 14
BITMAP
37A55037A550
38B65038B650
122110122110
ENDCHAR
STARTCHAR copyright
ENCODING 169
SWIDTH 869 0
DWIDTH 17 0
BBX 17 17 0 0
BITMAP
0000038BDCA5000000
0001AD84236BD40000
002D910021004E6000
00C8019EEFD602E400
07B02D92004C906C00
0D40C8000001400D40
3E03E1000000000890
5C07A00000000006B0
5B08A00000000005B0
4D05C00000000007A0
1E21E4000000000B60
0A806E300007B02E10
02E306EB88DC20B800
006D301687400AB000
0006E8100005CA1000
000029ECBCEB500000
000000034310000000
ENDCHAR
STARTCHAR ordfeminine
ENCODING 170
SWIDTH 833 0
DWIDTH 17 0
BBX 16 16 0 -1
BITMAP
0000004675200000
00018B75569B4000
002C56BBAB949800
01B4B65997498870
076B4B64449776B2
0C66B4B98B776B57
38A57A300085B65B
46B74A000019A47B
56A74A00000B948B
38A57B10000B948B
0B56B4B7585B948B
076A4B65553B948B
00B5A659A82B948B
001A66AAAA5B948B
00006B85575B948B
0000003554000000
ENDCHAR
STARTCHAR guillemotleft
ENCODING 171
SWIDTH 911 0
DWIDTH 18 0
BBX 18 11 0 2
BITMAP
000000001000000001
0000027B40000028B3
0004AA5650005A9464
17B749B6218B649B62
256B947B4246B847B4
3B65AA4003B55AA400
17B843B8218B844B81
2C848B6443C749B643
004AA55A5004AA56B4
000017B82000017B72
000000034000000043
ENDCHAR
STARTCHAR logicalnot
ENCODING 172
SWIDTH 718 0
DWIDTH 14 0
BBX 14 7 0 4
BITMAP
18888888886524
1444444445A948
1888888889A948
2BBBBBBBBBA948
0000000000A948
0000000000A948
00000000008736
ENDCHAR
STARTCHAR registered
ENCODING 174
SWIDTH 869 0
DWIDTH 17 0
BBX 17 17 0 0
BITMAP
0000038BDCA5000000
0001AD84236BD40000
002D910000004E6000
00C80133331002E400
07B008EDDDE8006C00
0D4008A0002E400D40
3E0008A0000A700890
5C0008A0003E4006B0
5B0008FFFFE70005B0
4D0008A11A900007A0
1E2008A003F1000B60
0A8008A000B8002E10
02E30680003B00B800
006D300000000AB000
0006E8100005CA1000
000029ECBCEB500000
000000034310000000
ENDCHAR
STARTCHAR degree
ENCODING 176
SWIDTH 330 0
DWIDTH 7 0
BBX 6 6 0 15
BITMAP
018860
0A6867
477099
378299
096775
005730
ENDCHAR
STARTCHAR plusminus
ENCODING 177
SWIDTH 598 0
DWIDTH 12 0
BBX 12 13 0 0
BITMAP
000437636000
00065B848000
00065B848000
3BBC5B84DBB3
277A5B84B772
14485B84A441
3AAC5B84DAA3
00065B848000
00065B848000
000325424000
06BBBBBBBB80
046666666650
035555555540
ENDCHAR
STARTCHAR uni00B2
ENCODING 178
SWIDTH 435 0
DWIDTH 9 0
BBX 9 14 0 3
BITMAP
0001210000
0AA98AB300
059BBA3C10
032002A920
0000067B00
00002A8500
0000B59000
00085B1000
0058A30000
02A7600000
0A5A000000
4999999500
2444444200
3888888400
ENDCHAR
STARTCHAR uni00B3
ENCODING 179
SWIDTH 515 0
DWIDTH 10 0
BBX 10 15 0 2
BITMAP
0012200000
5BA99BA200
17AAA84B30
155554B4A0
08766B4AA1
0000054A92
003BBBA680
0028874880
0014458874
00399A8949
023212B74A
0489984C47
09BBAAA4B1
1865458B20
0356763000
ENDCHAR
STARTCHAR acute
ENCODING 180
SWIDTH 472 0
DWIDTH 9 0
BBX 9 5 0 14
BITMAP
0000029600
00029A4870
029A48B400
1949A40000
0093000000
ENDCHAR
STARTCHAR uni00B5
ENCODING 181
SWIDTH 802 0
DWIDTH 16 0
BBX 16 18 0 -3
BITMAP
0110010000100100
1AA47B0000A46B74
1AA47B0000A46B74
1AA47B0000A46B74
1AA47B0000A46B74
1AA47B0000A46B74
1AA47B0000A46B74
1AA47B0000A46B74
1AA47B0000A46B73
1AA47B0000B65B92
1AA47B444A5B58B0
1AA47B4764B5B490
1AA47B8BBA4A5B20
1AA47B6779A4A400
1AA47B45447B3000
1AA47B7AA8400000
1AA47B0000000000
0110110000000000
ENDCHAR
STARTCHAR paragraph
ENCODING 182
SWIDTH 676 0
DWIDTH 14 0
BBX 13 18 0 -3
BITMAP
00000011111110
0004ABAAAAAA90
008858AAAAA390
06799444448490
0B678A777B8490
47B578BB5B8490
56B75B156B8490
38B487AC6B8490
0C587B9B6B8490
0797B5486B8490
008A467A6B8490
00039BBC6B8490
000000056B8490
000000056B8490
000000056B8490
000000056B8490
00000005BB8B90
00000000211210
ENDCHAR
STARTCHAR periodcentered
ENCODING 183
SWIDTH 260 0
DWIDTH 5 0
BBX 5 5 0 7
BITMAP
144410
177720
2BBB40
177720
144410
ENDCHAR
STARTCHAR cedilla
ENCODING 184
SWIDTH 321 0
DWIDTH 6 0
BBX 6 7 0 -8
BITMAP
001A46
07A647
0B4BB5
19A100
0A6B94
097442
004783
ENDCHAR
STARTCHAR uni00B9
ENCODING 185
SWIDTH 359 0
DWIDTH 7 0
BBX 7 13 0 4
BITMAP
13333310
38888820
4BBBBB30
0037B640
0037B640
0037B640
0037B640
0037B640
0037B640
0037B640
0037B640
0037B640
00001000
ENDCHAR
STARTCHAR ordmasculine
ENCODING 186
SWIDTH 835 0
DWIDTH 17 0
BBX 17 16 0 -1
BITMAP
0000038ABA61000000
0001A944545A800000
002B49A767B75A0000
01B4B48BAB65B59000
085B4B46856B498300
0B65B4B537B4994A00
38B57B100048A47B00
56B74A00000B74AA10
56B74A00000B74AA10
38A57B200058A57B00
0B66B4C648B5894900
075B4B55756A599300
01B4B47AAA66A59000
002B49B768B76A0000
00019954445B700000
00000279A951000000
ENDCHAR
STARTCHAR guillemotright
ENCODING 187
SWIDTH 912 0
DWIDTH 18 0
BBX 18 11 0 2
BITMAP
110000000110000000
1A93000002B9300000
2748B61003748B6100
15AA55A9315AA56B92
1B947B8442B847B743
0028B64A60039B65A5
06B727A9317B627B92
155AA45C6255A946C5
2B749B6103B649A500
16B93000016B820000
250000000250000000
ENDCHAR
STARTCHAR onequarter
ENCODING 188
SWIDTH 1236 0
DWIDTH 25 0
BBX 25 19 0 -2
BITMAP
13333310000211200000000000
48888820000B75A00000000000
5BBBBB200029A4700000000000
0046B7300065B7400000000000
0046B73000A48A0001B66B1000
0046B73000B75A00075B580000
0046B730029A47000B57B10000
0046B730065B740066B4900000
0046B7300A48A000B58A210000
0046B7300B75A0057B4A0B8300
0046B73029A4700B49930B8300
0046B73065B7300AAAAAAAAA30
00001000A48A00044444444410
00000000B75A00077777777720
000000029A47000BBBBBBBBB30
000000065B7300000000086200
0000000A48B0000000000A8300
0000000B74A000000000000000
00000028946000000000000000
ENDCHAR
STARTCHAR onehalf
ENCODING 189
SWIDTH 1154 0
DWIDTH 23 0
BBX 23 19 0 -2
BITMAP
133333100002112000000000
48888820000B75A000000000
5BBBBB200029A47000000000
0046B7300065B74000000000
0046B73000A48A0379A96100
0046B73000B75A0455555B10
0046B730029A4704A877B570
0046B730065B74000000B570
0046B7300A48A00000067B10
0046B7300B75A000002A8500
0046B73029A4700000B59000
0046B73065B73000095B1000
00001000A48A000058A30000
00000000B75A0002A7600000
000000029A47000648222200
000000065B73001999999800
0000000A48B0001BBBBBBA00
0000000B74A0000000000000
000000289460000000000000
ENDCHAR
STARTCHAR threequarters
ENCODING 190
SWIDTH 1345 0
DWIDTH 27 0
BBX 27 19 0 -2
BITMAP
0012200000000021120000000000
5BA99BA20000029A480000000000
17AAA84B2000065B740000000000
155554B4A0000A49A10000000000
08766B49A0000B65B000B48A2000
0000054A910029A480048A4A0000
004BBBA6900065B7400B49940000
003887488000A48A1039A4B00000
002445988400B65B00A4A8510000
00399A8949029A4803A94C0B5600
022113B74A065B740A4B760B5600
0489984C570A48A109AAAAAAAA40
0ABBAAA4B10B65B0044444444420
2865459B2029A480067777777730
035676300065B74009BBBBBBBB50
0000000000A48A00000000084400
0000000000B65B000000000A5600
00000000029A4800000000000000
00000000055A6400000000000000
ENDCHAR
STARTCHAR questiondown
ENCODING 191
SWIDTH 693 0
DWIDTH 14 0
BBX 14 17 0 0
BITMAP
0016ABBB940000
08A5467647B200
458B75469B4B20
0257BBAAA4B4A0
001569984B49A1
00004213B56A74
00111124B56B74
00B64A674B48A1
00B64A9A93B3A0
00B64A67993B20
00B64A4447B200
00B64A78740000
00853800000000
02888800000000
01444400000000
02999910000000
02BBBB10000000
ENDCHAR
STARTCHAR Agrave
ENCODING 192
SWIDTH 936 0
DWIDTH 19 0
BBX 19 23 0 0
BITMAP
00009710000000000000
000A65B7100000000000
00006B65B71000000000
0000006B658000000000
00000000570000000000
00000000000000000000
00000011211200000000
0000008B84B740000000
000000B94994A0000000
000005658A48A1000000
00000A47B57B57000000
0000299485B65B000000
000084B84A84A8400000
0000B65B3A4994A00000
00057B57B48A48A10000
000A48A490B56B570000
002A94A93075B65B0000
0084B75B676A84A83000
00B66B66444A49949000
047B57B6AAA77B48B100
0A49A4AAAAA8B66B5600
1A94A831111175B75B00
75B75B0000002A94A830
ENDCHAR
STARTCHAR Aacute
ENCODING 193
SWIDTH 936 0
DWIDTH 19 0
BBX 19 23 0 0
BITMAP
00000000000029600000
000000000029A4870000
0000000029A48B400000
00000001948A40000000
00000000093000000000
00000000000000000000
00000011211200000000
0000008B84B740000000
000000B94994A0000000
000005658A48A1000000
00000A47B57B57000000
0000299485B65B000000
000084B84A84A8400000
0000B65B3A4994A00000
00057B57B48A48A10000
000A48A490B56B570000
002A94A93075B65B0000
0084B75B676A84A83000
00B66B66444A49949000
047B57B6AAA77B48B100
0A49A4AAAAA8B66B5600
1A94A831111175B75B00
75B75B0000002A94A830
ENDCHAR
STARTCHAR Acircumflex
ENCODING 194
SWIDTH 936 0
DWIDTH 19 0
BBX 19 23 0 0
BITMAP
00000000C38000000000
00000004A8A100000000
0000000A2B5600000000
0000002A875B00000000
00000074A19830000000
00000000000000000000
00000011211200000000
0000008B84B740000000
000000B94994A0000000
000005658A48A1000000
00000A47B57B57000000
0000299485B65B000000
000084B84A84A8400000
0000B65B3A4994A00000
00057B57B48A48A10000
000A48A490B56B570000
002A94A93075B65B0000
0084B75B676A84A83000
00B66B66444A49949000
047B57B6AAA77B48B100
0A49A4AAAAA8B66B5600
1A94A831111175B75B00
75B75B0000002A94A830
ENDCHAR
STARTCHAR Atilde
ENCODING 195
SWIDTH 936 0
DWIDTH 19 0
BBX 19 22 0 0
BITMAP
00003ABBBBB908530000
0002B355555579830000
00074B65555544B00000
0007361BBBBBA8100000
00000000000000000000
00000011211200000000
0000008B84B740000000
000000B94994A0000000
000005658A48A1000000
00000A47B57B57000000
0000299485B65B000000
000084B84A84A8400000
0000B65B3A4994A00000
00057B57B48A48A10000
000A48A490B56B570000
002A94A93075B65B0000
0084B75B676A84A83000
00B66B66444A49949000
047B57B6AAA77B48B100
0A49A4AAAAA8B66B5600
1A94A831111175B75B00
75B75B0000002A94A830
ENDCHAR
STARTCHAR Adieresis
ENCODING 196
SWIDTH 936 0
DWIDTH 19 0
BBX 19 20 0 0
BITMAP
000064A82064A8200000
000065B92065B9200000
00001122001122000000
00000011211200000000
0000008B84B740000000
000000B94994A0000000
000005658A48A1000000
00000A47B57B57000000
0000299485B65B000000
000084B84A84A8400000
0000B65B3A4994A00000
00057B57B48A48A10000
000A48A490B56B570000
002A94A93075B65B0000
0084B75B676A84A83000
00B66B66444A49949000
047B57B6AAA77B48B100
0A49A4AAAAA8B66B5600
1A94A831111175B75B00
75B75B0000002A94A830
ENDCHAR
STARTCHAR Aring
ENCODING 197
SWIDTH 936 0
DWIDTH 19 0
BBX 19 22 0 0
BITMAP
00000001786000000000
00000009686800000000
00000037809900000000
00000038929900000000
00000009677600000000
00000011785200000000
0000008B84B740000000
000000B94994A0000000
000005658A48A1000000
00000A47B57B57000000
0000299485B65B000000
000084B84A84A8400000
0000B65B3A4994A00000
00057B57B48A48A10000
000A48A490B56B570000
002A94A93075B65B0000
0084B75B676A84A83000
00B66B66444A49949000
047B57B6AAA77B48B100
0A49A4AAAAA8B66B5600
1A94A831111175B75B00
75B75B0000002A94A830
ENDCHAR
STARTCHAR AE
ENCODING 198
SWIDTH 1198 0
DWIDTH 24 0
BBX 24 17 0 0
BITMAP
000000112112333333333331
0000008B75B7B88888888882
000000B94A94DBBBBBBBBBB2
000005658A49A65555555551
00000A47B57B5A5555555551
0000299485B66B0000000000
000084A74A84B84000000000
0000B65B394994DBBBBBBB00
00057B57B48A48B777777700
000A48A490B56B6944444400
002A94A93075B65DAAAAAA00
0075B75B676A84A820000000
00B66B56444A499580000000
047B47B6AAA77B48B8888882
0A49A4A9AAA8B66B68444441
1A84A831111175B76D999992
75B75B0000001A94A9BBBBB2
ENDCHAR
STARTCHAR Ccedilla
ENCODING 199
SWIDTH 852 0
DWIDTH 17 0
BBX 17 24 0 -7
BITMAP
0000015ABBB9400000
00006B6457548B2000
000975B8546AA4A500
0086975ABAB94A5A30
039869858974A5A320
0A498698214A591000
1A94A7500000700000
56B75B000000000000
65A958000000000000
65A958000000000000
46B65B000000000000
1A84B5700001900000
0A4A686A546B4B2100
02A687A46755B4B430
00687A49BBB74B4B20
000794AA778B84B300
00004B844445A91000
00000039FEF6200000
0000007A6460000000
000001B5BB50000000
0000029B0000000000
000001A7A940000000
000000A74420000000
000000057830000000
ENDCHAR
STARTCHAR Egrave
ENCODING 200
SWIDTH 706 0
DWIDTH 14 0
BBX 14 23 0 0
BITMAP
01A50000000000
2A57B500000000
018B56B6000000
00017B56600000
00000174000000
00000000000000
02211233333331
19A46C88888882
19A46CBBBBBBB3
19A46B55555552
19A46B55555552
19A46B00000000
19A46B00000000
19A46CBBB70000
19A46C77740000
19A46B44430000
19A46CAAA70000
19A46B00000000
19A46B00000000
19A46C88888882
19A46B44444441
19A46C99999993
19A46CBBBBBBB3
ENDCHAR
STARTCHAR Eacute
ENCODING 201
SWIDTH 706 0
DWIDTH 14 0
BBX 14 23 0 0
BITMAP
00000000003A30
000000004A84A4
0000004B84A920
00000384A92000
00000028200000
00000000000000
02211233333331
19A46C88888882
19A46CBBBBBBB3
19A46B55555552
19A46B55555552
19A46B00000000
19A46B00000000
19A46CBBB70000
19A46C77740000
19A46B44430000
19A46CAAA70000
19A46B00000000
19A46B00000000
19A46C88888882
19A46B44444441
19A46C99999993
19A46CBBBBBBB3
ENDCHAR
STARTCHAR Ecircumflex
ENCODING 202
SWIDTH 706 0
DWIDTH 14 0
BBX 14 23 0 0
BITMAP
000002B4500000
000008A5B00000
00000B2A930000
0000568A480000
0000A4746A0000
00000000000000
02211233333331
19A46C88888882
19A46CBBBBBBB3
19A46B55555552
19A46B55555552
19A46B00000000
19A46B00000000
19A46CBBB70000
19A46C77740000
19A46B44430000
19A46CAAA70000
19A46B00000000
19A46B00000000
19A46C88888882
19A46B44444441
19A46C99999993
19A46CBBBBBBB3
ENDCHAR
STARTCHAR Edieresis
ENCODING 203
SWIDTH 706 0
DWIDTH 14 0
BBX 14 20 0 0
BITMAP
00946A00946A00
00A47B00A47B00
00212200212200
02211233333331
19A46C88888882
19A46CBBBBBBB3
19A46B55555552
19A46B55555552
19A46B00000000
19A46B00000000
19A46CBBB70000
19A46C77740000
19A46B44430000
19A46CAAA70000
19A46B00000000
19A46B00000000
19A46C88888882
19A46B44444441
19A46C99999993
19A46CBBBBBBB3
ENDCHAR
STARTCHAR Igrave
ENCODING 204
SWIDTH 338 0
DWIDTH 7 0
BBX 9 23 -3 0
BITMAP
0971000000
A65B710000
06B65B7100
0006B65800
0000057000
0000000000
0000221120
00019A46B0
00019A46B0
00019A46B0
00019A46B0
00019A46B0
00019A46B0
00019A46B0
00019A46B0
00019A46B0
00019A46B0
00019A46B0
00019A46B0
00019A46B0
00019A46B0
00019A46B0
00019A46B0
ENDCHAR
STARTCHAR Iacute
ENCODING 205
SWIDTH 338 0
DWIDTH 7 0
BBX 10 23 0 0
BITMAP
0000002960
000029A487
0029A48B40
01948A4000
0009300000
0000000000
0221120000
19A46B0000
19A46B0000
19A46B0000
19A46B0000
19A46B0000
19A46B0000
19A46B0000
19A46B0000
19A46B0000
19A46B0000
19A46B0000
19A46B0000
19A46B0000
19A46B0000
19A46B0000
19A46B0000
ENDCHAR
STARTCHAR Icircumflex
ENCODING 206
SWIDTH 338 0
DWIDTH 7 0
BBX 7 23 0 0
BITMAP
00C38000
04A8A100
0A2B5600
2A875B00
74A19830
00000000
02211200
19A46B00
19A46B00
19A46B00
19A46B00
19A46B00
19A46B00
19A46B00
19A46B00
19A46B00
19A46B00
19A46B00
19A46B00
19A46B00
19A46B00
19A46B00
19A46B00
ENDCHAR
STARTCHAR Idieresis
ENCODING 207
SWIDTH 338 0
DWIDTH 7 0
BBX 11 20 -2 0
BITMAP
64A82064A820
65B92065B920
112200112200
000221120000
0019A46B0000
0019A46B0000
0019A46B0000
0019A46B0000
0019A46B0000
0019A46B0000
0019A46B0000
0019A46B0000
0019A46B0000
0019A46B0000
0019A46B0000
0019A46B0000
0019A46B0000
0019A46B0000
0019A46B0000
0019A46B0000
ENDCHAR
STARTCHAR Eth
ENCODING 208
SWIDTH 905 0
DWIDTH 18 0
BBX 18 17 0 0
BITMAP
023333333321000000
0B888888888AB40000
0B4BBBBBBBA9497000
0B5655555554987800
0B56C555556A878930
0B56B7BBBBB867A4A0
0844862000076B48A1
5BBBBBBA0000B65B64
377777760000A48B56
244444440000A47B56
5AAAAAA90000B65B74
0A56A83000095B47B1
0B56B6BBBBB686B490
0B56C888888B696A20
0B5744444445B59600
0B39999999864B6000
0BBBBBBBBBBB820000
ENDCHAR
STARTCHAR Ntilde
ENCODING 209
SWIDTH 877 0
DWIDTH 18 0
BBX 17 22 0 0
BITMAP
00018BBBBBB2538000
000A44555556B39000
001A885555553A3000
0026807BBBBBA40000
000000000000000000
021120200001121120
1F4B67A200056B8490
1BB66B4A00056B8490
1976B4A750056B8490
195B4985B1056B8490
19A4984B58056B8490
19A294B58A356B8490
19A46B57A4B56B8490
19A4667A4B675B8490
19A468B4A76B1B8490
19A46B3A75B4998490
19A46B085B49958490
19A46B01B5894B7490
19A46B0058A4B68390
19A46B000A4B67B390
19A46B0002A66B4B90
19A46B000075B4A890
ENDCHAR
STARTCHAR Ograve
ENCODING 210
SWIDTH 933 0
DWIDTH 19 0
BBX 19 24 0 -1
BITMAP
00009710000000000000
000A65B7100000000000
00006B65B71000000000
0000006B657000000000
00000000570000000000
00000000000000000000
0000015ABBB840000000
00006B6456548B300000
000975B85459A4A50000
0086975ABAB94A5A3000
039869858974B5A4B000
0A498698214B5A4B6600
1A94A7500000A4B74A00
56B75B0000001A948B00
65A9580000000B74A910
65A9580000000B74AA10
46B65B00000029A48B00
1A84B5700001B4A84A00
0A4A686A546A4B3B7500
02A687A46755B4B3B000
00687A49BBB75B4B2000
000794AA778B84B30000
00004B844445A9100000
000000379A9610000000
ENDCHAR
STARTCHAR Oacute
ENCODING 211
SWIDTH 933 0
DWIDTH 19 0
BBX 19 24 0 -1
BITMAP
00000000000029500000
000000000029A4870000
0000000029948B400000
00000001949A30000000
00000000093000000000
00000000000000000000
0000015ABBB840000000
00006B6456548B300000
000975B85459A4A50000
0086975ABAB94A5A3000
039869858974B5A4B000
0A498698214B5A4B6600
1A94A7500000A4B74A00
56B75B0000001A948B00
65A9580000000B74A910
65A9580000000B74AA10
46B65B00000029A48B00
1A84B5700001B4A84A00
0A4A686A546A4B3B7500
02A687A46755B4B3B000
00687A49BBB75B4B2000
000794AA778B84B30000
00004B844445A9100000
000000379A9610000000
ENDCHAR
STARTCHAR Ocircumflex
ENCODING 212
SWIDTH 933 0
DWIDTH 19 0
BBX 19 24 0 -1
BITMAP
00000000C38000000000
00000005A7B100000000
0000000A1B6600000000
00000029875B00000000
00000074A29820000000
00000000000000000000
0000015ABBB840000000
00006B6456548B300000
000975B85459A4A50000
0086975ABAB94A5A3000
039869858974B5A4B000
0A498698214B5A4B6600
1A94A7500000A4B74A00
56B75B0000001A948B00
65A9580000000B74A910
65A9580000000B74AA10
46B65B00000029A48B00
1A84B5700001B4A84A00
0A4A686A546A4B3B7500
02A687A46755B4B3B000
00687A49BBB75B4B2000
000794AA778B84B30000
00004B844445A9100000
000000379A9610000000
ENDCHAR
STARTCHAR Otilde
ENCODING 213
SWIDTH 933 0
DWIDTH 19 0
BBX 19 23 0 -1
BITMAP
00003ABBBBB808530000
0002B355555579830000
00074B65555544B00000
0007361BBBBBA8100000
00000000000000000000
0000015ABBB840000000
00006B6456548B300000
000975B85459A4A50000
0086975ABAB94A5A3000
039869858974B5A4B000
0A498698214B5A4B6600
1A94A7500000A4B74A00
56B75B0000001A948B00
65A9580000000B74A910
65A9580000000B74AA10
46B65B00000029A48B00
1A84B5700001B4A84A00
0A4A686A546A4B3B7500
02A687A46755B4B3B000
00687A49BBB75B4B2000
000794AA778B84B30000
00004B844445A9100000
000000379A9610000000
ENDCHAR
STARTCHAR Odieresis
ENCODING 214
SWIDTH 933 0
DWIDTH 19 0
BBX 19 21 0 -1
BITMAP
000064A91064A9100000
000064A91064A9100000
00001122001122000000
0000015ABBB840000000
00006B6456548B300000
000975B85459A4A50000
0086975ABAB94A5A3000
039869858974B5A4B000
0A498698214B5A4B6600
1A94A7500000A4B74A00
56B75B0000001A948B00
65A9580000000B74A910
65A9580000000B74AA10
46B65B00000029A48B00
1A84B5700001B4A84A00
0A4A686A546A4B3B7500
02A687A46755B4B3B000
00687A49BBB75B4B2000
000794AA778B84B30000
00004B844445A9100000
000000379A9610000000
ENDCHAR
STARTCHAR multiply
ENCODING 215
SWIDTH 790 0
DWIDTH 16 0
BBX 16 15 0 0
BITMAP
1010100001010100
4985B4B01B5985B2
094B4A66A4C4A760
01B49857985B3B00
0058947C4A76A300
000A4A95B3B58000
0002B4A76A4B0000
00004B4B67940000
000076B4B4A40000
0002B67A4C3C1000
000B3B5985B58000
0067A4B4A867A300
01B5985B575B4B00
0A4C4A7694B4B670
5895B3B01C4976B2
ENDCHAR
STARTCHAR Oslash
ENCODING 216
SWIDTH 938 0
DWIDTH 19 0
BBX 19 23 0 -4
BITMAP
00000000000046200000
000000000000B4960000
0000015ABBB9674A0000
00006B6456548B720000
000975B85459A4A50000
0086975ABAB94A5A3000
039859858974B5A4B000
0A498698214B5A4B6600
1A94A7500000A4A74A00
56B75A00000029948B00
64A9570000000B74AA10
65A9580000000B749A10
46B65B00000039A47B00
1A84B5700001B4A84A00
0A4A686A546A4B3B7500
02A687A46755B4B3B000
00687949BBB75B4B2000
000794AA778B84B30000
00074B844445A9100000
002A84779A9610000000
0064B750000000000000
00023B00000000000000
00000100000000000000
ENDCHAR
STARTCHAR Ugrave
ENCODING 217
SWIDTH 905 0
DWIDTH 18 0
BBX 18 24 0 -1
BITMAP
0001A4000000000000
003A47B50000000000
00029A47B500000000
0000018A4750000000
000000018300000000
000000000000000000
012112000000211211
38B65B000000B46B73
38B65B000000B46B73
38B65B000000B46B73
38B65B000000B46B73
38B65B000000B46B73
38B65B000000B46B73
38B65B000000B46B73
38B65B000000B46B73
38B65B000000B46B73
29B56B000000B65B83
0B84A85000058A48A1
0A4985A9549A5894B0
049869847748A59840
0085975ABBA57A5800
000975B9779B579000
00005B744447B60000
00000058AA85100000
ENDCHAR
STARTCHAR Uacute
ENCODING 218
SWIDTH 905 0
DWIDTH 18 0
BBX 18 24 0 -1
BITMAP
0000000000004A2000
00000000004B84A300
000000005B74A92000
0000000474A8100000
000000003810000000
000000000000000000
012112000000211211
38B65B000000B46B73
38B65B000000B46B73
38B65B000000B46B73
38B65B000000B46B73
38B65B000000B46B73
38B65B000000B46B73
38B65B000000B46B73
38B65B000000B46B73
38B65B000000B46B73
29B56B000000B65B83
0B84A85000058A48A1
0A4985A9549A5894B0
049869847748A59840
0085975ABBA57A5800
000975B9779B579000
00005B744447B60000
00000058AA85100000
ENDCHAR
STARTCHAR Ucircumflex
ENCODING 219
SWIDTH 905 0
DWIDTH 18 0
BBX 18 24 0 -1
BITMAP
00000003A540000000
0000000AA4A0000000
0000001A39A1000000
000000758B57000000
000000A5665A000000
000000000000000000
012112000000211211
38B65B000000B46B73
38B65B000000B46B73
38B65B000000B46B73
38B65B000000B46B73
38B65B000000B46B73
38B65B000000B46B73
38B65B000000B46B73
38B65B000000B46B73
38B65B000000B46B73
29B56B000000B65B83
0B84A85000058A48A1
0A4985A9549A5894B0
049869847748A59840
0085975ABBA57A5800
000975B9779B579000
00005B744447B60000
00000058AA85100000
ENDCHAR
STARTCHAR Udieresis
ENCODING 220
SWIDTH 905 0
DWIDTH 18 0
BBX 18 21 0 -1
BITMAP
0000A55A00A55A0000
0000B55B00B55B0000
000021120021120000
012112000000211211
38B65B000000B46B73
38B65B000000B46B73
38B65B000000B46B73
38B65B000000B46B73
38B65B000000B46B73
38B65B000000B46B73
38B65B000000B46B73
38B65B000000B46B73
38B65B000000B46B73
29B56B000000B65B83
0B84A85000058A48A1
0A4985A9549A5894B0
049869847748A59840
0085975ABBA57A5800
000975B9779B579000
00005B744447B60000
00000058AA85100000
ENDCHAR
STARTCHAR Yacute
ENCODING 221
SWIDTH 789 0
DWIDTH 16 0
BBX 16 23 0 0
BITMAP
000000000005A100
0000000005B75A20
00000006B65B8100
000000665B710000
0000000471000000
0000000000000000
2112110000111211
56A8590000A65A92
0A759920047A7590
065A85900A66A830
00A7599237A65A00
0075A948A56A7300
001A85958A66A000
0007598957A74000
00019949A56A0000
000084A58A650000
00001A9957A00000
00000A59A5600000
00000848B5500000
00000848B5500000
00000848B5500000
00000848B5500000
00000848B5500000
ENDCHAR
STARTCHAR Thorn
ENCODING 222
SWIDTH 798 0
DWIDTH 16 0
BBX 16 19 0 -2
BITMAP
1894690000000000
19A47B1110000000
19A47CAAABA40000
19A47CAAA8489100
19A47B4454995A00
19A47C777A95A760
19A47CBBB85A75B0
19A47B0004984A92
19A47B0000A47B74
19A47B0000B56B73
19A47B22287A49A1
19A47B79958894B0
19A47B9ABB677940
19A47B4457B68700
19A47B56645B6000
19A47B9BBB710000
19A47B0000000000
19A47B0000000000
0442340000000000
ENDCHAR
STARTCHAR germandbls
ENCODING 223
SWIDTH 826 0
DWIDTH 17 0
BBX 16 19 0 -2
BITMAP
00016ABBBBB82000
003B55777754A600
01B4B744445A7860
094B4BAAAAB686B1
0B84B49AAA685B65
29A46B211194A947
28B55B6777C49A56
28B55B44444B4992
28B55B9AAACA67A1
28B55B9AAA85A958
28B55B000149A57B
28B55B000029A47B
28B55B9BBBA5A84A
28B55B7888AA4A75
28B55B444448A4B0
28B55B8999747B10
28B55B9BBBBB6000
28B55B0000000000
1342240000000000
ENDCHAR
STARTCHAR agrave
ENCODING 224
SWIDTH 832 0
DWIDTH 17 0
BBX 16 22 0 -1
BITMAP
001A500000000000
02A47B5000000000
0018B57B50000000
000018B565000000
0000001740000000
0000000000000000
0000014665100000
00019B7556AB3000
003C57BBAB94A600
01C4B569974A6950
094B4B6444A695B1
1B85B4B88B694B66
56B65B200094A84A
65A948000037A55B
64A948000029B46B
46B65B000029B46B
1B75B4A65859B46B
095A4B655549B46B
01B5A569A739B46B
001B56AAAA59B46B
00017B755759B46B
0000003553000000
ENDCHAR
STARTCHAR aacute
ENCODING 225
SWIDTH 832 0
DWIDTH 17 0
BBX 16 22 0 -1
BITMAP
000000000004A200
0000000004B84A40
00000004B84A9200
000000474A920000
0000000282000000
0000000000000000
0000014665100000
00019B7556AB3000
003C57BBAB94A600
01C4B569974A6950
094B4B6444A695B1
1B85B4B88B694B66
56B65B200094A84A
65A948000037A55B
64A948000029B46B
46B65B000029B46B
1B75B4A65859B46B
095A4B655549B46B
01B5A569A739B46B
001B56AAAA59B46B
00017B755759B46B
0000003553000000
ENDCHAR
STARTCHAR acircumflex
ENCODING 226
SWIDTH 832 0
DWIDTH 17 0
BBX 16 22 0 -1
BITMAP
0000003B55000000
0000009A4A000000
000001B299200000
00000668A4800000
00000A4756A00000
0000000000000000
0000014665100000
00019B7556AB3000
003C57BBAB94A600
01C4B569974A6950
094B4B6444A695B1
1B85B4B88B694B66
56B65B200094A84A
65A948000037A55B
64A948000029B46B
46B65B000029B46B
1B75B4A65859B46B
095A4B655549B46B
01B5A569A739B46B
001B56AAAA59B46B
00017B755759B46B
0000003553000000
ENDCHAR
STARTCHAR atilde
ENCODING 227
SWIDTH 832 0
DWIDTH 17 0
BBX 16 21 0 -1
BITMAP
0006ABBBBB617800
00683555555A5B00
00B3B55555536800
008534BBBBBA7000
0000000000000000
0000014665100000
00019B7556AB3000
003C57BBAB94A600
01C4B569974A6950
094B4B6444A695B1
1B85B4B88B694B66
56B65B200094A84A
65A948000037A55B
64A948000029B46B
46B65B000029B46B
1B75B4A65859B46B
095A4B655549B46B
01B5A569A739B46B
001B56AAAA59B46B
00017B755759B46B
0000003553000000
ENDCHAR
STARTCHAR adieresis
ENCODING 228
SWIDTH 832 0
DWIDTH 17 0
BBX 16 19 0 -1
BITMAP
000A46A00A46A000
000A46B00A46B000
0002112002112000
0000014665100000
00019B7556AB3000
003C57BBAB94A600
01C4B569974A6950
094B4B6444A695B1
1B85B4B88B694B66
56B65B200094A84A
65A948000037A55B
64A948000029B46B
46B65B000029B46B
1B75B4A65859B46B
095A4B655549B46B
01B5A569A739B46B
001B56AAAA59B46B
00017B755759B46B
0000003553000000
ENDCHAR
STARTCHAR aring
ENCODING 229
SWIDTH 832 0
DWIDTH 17 0
BBX 16 22 0 -1
BITMAP
0000002884000000
0000019787500000
0000067518900000
0000067738900000
000001A678400000
0000001672000000
0000014665100000
00019B7556AB3000
003C57BBAB94A600
01C4B569974A6950
094B4B6444A695B1
1B85B4B88B694B66
56B65B200094A84A
65A948000037A55B
64A948000029B46B
46B65B000029B46B
1B75B4A65859B46B
095A4B655549B46B
01B5A569A739B46B
001B56AAAA59B46B
00017B755759B46B
0000003553000000
ENDCHAR
STARTCHAR ae
ENCODING 230
SWIDTH 1166 0
DWIDTH 23 0
BBX 23 16 0 -1
BITMAP
000001467520100111111100
00019B7556AB246CAAAAAA50
003C57BBAB94A85CAAAAAA50
01C4B569974A695B44444420
094B4B6444A695CC77777740
1B85B4B88B694B6C00000000
56B65B200094A84EBBBBBB20
65A948000037A55D66666610
64A948000029B46C55555510
46B65B000029B46DBBBBBB20
1B75B4A65859B46B00000000
095A4B655549B46C88888840
01B5A569A739B46C44444420
001B56AAAA59B46C99999950
00017B755759B46DBBBBBB60
000000355300000000000000
ENDCHAR
STARTCHAR ccedilla
ENCODING 231
SWIDTH 736 0
DWIDTH 15 0
BBX 15 22 0 -7
BITMAP
0000038AB9610000
0002A845545B7000
003B4AA668B66A00
01B4B49ABB66A410
094B4B47856A3000
1A84B4B537920000
56B65C1000100000
65A9480000000000
65A9480000000000
46B65C1000100000
1B85B4C648930000
094B4B4674794000
01B4B48ABA579510
003B49A779B67900
0002A944446B6000
0000029FFD510000
0000089655000000
00001A6BB4000000
000038B000000000
0000298A93000000
00000A6442000000
0000005783000000
ENDCHAR
STARTCHAR egrave
ENCODING 232
SWIDTH 666 0
DWIDTH 13 0
BBX 13 21 0 0
BITMAP
05920000000000
6849A300000000
03A949A3000000
0003A949200000
00000391000000
00000000000000
01100111111110
19A46CAAAAAA50
19A46CAAAAAA60
19A46B44444420
19A46C77777740
19A46B00000000
19A46CBBBBBB20
19A46C66666610
19A46B55555510
19A46CBBBBBB20
19A46B00000000
19A46C88888840
19A46B44444420
19A46C99999950
19A46CBBBBBB60
ENDCHAR
STARTCHAR eacute
ENCODING 233
SWIDTH 666 0
DWIDTH 13 0
BBX 14 21 0 0
BITMAP
00000000006A00
000000006B65A1
0000017B56B710
00000756B60000
00000066000000
00000000000000
01100111111110
19A46CAAAAAA50
19A46CAAAAAA60
19A46B44444420
19A46C77777740
19A46B00000000
19A46CBBBBBB20
19A46C66666610
19A46B55555510
19A46CBBBBBB20
19A46B00000000
19A46C88888840
19A46B44444420
19A46C99999950
19A46CBBBBBB60
ENDCHAR
STARTCHAR ecircumflex
ENCODING 234
SWIDTH 666 0
DWIDTH 13 0
BBX 13 21 0 0
BITMAP
00000779100000
00000BB5600000
00005675B00000
0000A47A830000
00019829480000
00000000000000
01100111111110
19A46CAAAAAA50
19A46CAAAAAA60
19A46B44444420
19A46C77777740
19A46B00000000
19A46CBBBBBB20
19A46C66666610
19A46B55555510
19A46CBBBBBB20
19A46B00000000
19A46C88888840
19A46B44444420
19A46C99999950
19A46CBBBBBB60
ENDCHAR
STARTCHAR edieresis
ENCODING 235
SWIDTH 666 0
DWIDTH 13 0
BBX 13 18 0 0
BITMAP
00A94700A94700
00A94700A94700
00221200221200
01100111111110
19A46CAAAAAA50
19A46CAAAAAA60
19A46B44444420
19A46C77777740
19A46B00000000
19A46CBBBBBB20
19A46C66666610
19A46B55555510
19A46CBBBBBB20
19A46B00000000
19A46C88888840
19A46B44444420
19A46C99999950
19A46CBBBBBB60
ENDCHAR
STARTCHAR igrave
ENCODING 236
SWIDTH 337 0
DWIDTH 7 0
BBX 9 21 -3 0
BITMAP
0971000000
A65B710000
06B65B7100
0006B65800
0000057000
0000000000
0000110010
00019A46B0
00019A46B0
00019A46B0
00019A46B0
00019A46B0
00019A46B0
00019A46B0
00019A46B0
00019A46B0
00019A46B0
00019A46B0
00019A46B0
00019A46B0
00019A46B0
ENDCHAR
STARTCHAR iacute
ENCODING 237
SWIDTH 337 0
DWIDTH 7 0
BBX 10 21 0 0
BITMAP
0000002960
000029A487
0029A48B40
01948A4000
0009300000
0000000000
0110010000
19A46B0000
19A46B0000
19A46B0000
19A46B0000
19A46B0000
19A46B0000
19A46B0000
19A46B0000
19A46B0000
19A46B0000
19A46B0000
19A46B0000
19A46B0000
19A46B0000
ENDCHAR
STARTCHAR icircumflex
ENCODING 238
SWIDTH 337 0
DWIDTH 7 0
BBX 7 21 0 0
BITMAP
00C38000
04A8A100
0A2B5600
2A875B00
74A19830
00000000
01100100
19A46B00
19A46B00
19A46B00
19A46B00
19A46B00
19A46B00
19A46B00
19A46B00
19A46B00
19A46B00
19A46B00
19A46B00
19A46B00
19A46B00
ENDCHAR
STARTCHAR idieresis
ENCODING 239
SWIDTH 337 0
DWIDTH 7 0
BBX 11 18 -2 0
BITMAP
64A82064A820
65B92065B920
112200112200
000110010000
0019A46B0000
0019A46B0000
0019A46B0000
0019A46B0000
0019A46B0000
0019A46B0000
0019A46B0000
0019A46B0000
0019A46B0000
0019A46B0000
0019A46B0000
0019A46B0000
0019A46B0000
0019A46B0000
ENDCHAR
STARTCHAR eth
ENCODING 240
SWIDTH 783 0
DWIDTH 16 0
BBX 15 18 0 -1
BITMAP
00016AABA9500000
007B5467646B3000
0367B75458B4A400
00267BBABA4A5B10
0001558984A4B570
000004213A4B75A0
00000122029A47B0
0006B989A4A947B0
01B76AAAA4A947B0
0A4A546653A947B0
38A4B75563A947B0
75A84B98969A47A0
74AA4A445B4B75A0
47B4B56755B4B570
0B4B49BBA84B4B10
03B4AA778BA4C300
003B8445559A2000
0000379A97200000
ENDCHAR
STARTCHAR ntilde
ENCODING 241
SWIDTH 787 0
DWIDTH 16 0
BBX 15 20 0 0
BITMAP
0017ABBBBB344800
00954555556B3A00
00B6955555539500
017706BBBBBA5000
0000000000000000
0100101000010010
1E4A76B1000B46B0
1CA85B49000B46B0
1994B58A300B46B0
195B67A4B00B46B0
19A76B4A750B46B0
19A1B4995B0B46B0
19A47894B57B46B0
19A46A4B66B846B0
19A462A75B4A46B0
19A46084B49976B0
19A4601B58A4B3B0
19A460066B4B76B0
19A46000B4A85BB0
19A460004994B5C0
ENDCHAR
STARTCHAR ograve
ENCODING 242
SWIDTH 833 0
DWIDTH 17 0
BBX 16 22 0 -1
BITMAP
000A600000000000
01A56B6000000000
0017B55B71000000
000006B657000000
0000000660000000
0000000000000000
0000038ABA610000
0002A845545B7000
003B4AA668B76A00
01B4B49AAB66A580
094B4B47856A58A2
1A84B4B537A67A48
56B65C100067B56B
65A94800000B848B
65A94800001B948B
46B65C100076B56B
1B85B4C648A67A48
094B4B46747967A2
01B4B48AAA579670
003B49A778B67900
0002A944446B6000
00000279A9510000
ENDCHAR
STARTCHAR oacute
ENCODING 243
SWIDTH 833 0
DWIDTH 17 0
BBX 16 22 0 -1
BITMAP
0000000000029500
0000000003A94960
00000003A949A300
0000002849A30000
0000000193000000
0000000000000000
0000038ABA610000
0002A845545B7000
003B4AA668B76A00
01B4B49AAB66A580
094B4B47856A58A2
1A84B4B537A67A48
56B65C100067B56B
65A94800000B848B
65A94800001B948B
46B65C100076B56B
1B85B4C648A67A48
094B4B46747967A2
01B4B48AAA579670
003B49A778B67900
0002A944446B6000
00000279A9510000
ENDCHAR
STARTCHAR ocircumflex
ENCODING 244
SWIDTH 833 0
DWIDTH 17 0
BBX 16 22 0 -1
BITMAP
0000001C37000000
0000006A6B000000
000000B1B6500000
0000038884A00000
0000084928910000
0000000000000000
0000038ABA610000
0002A845545B7000
003B4AA668B76A00
01B4B49AAB66A580
094B4B47856A58A2
1A84B4B537A67A48
56B65C100067B56B
65A94800000B848B
65A94800001B948B
46B65C100076B56B
1B85B4C648A67A48
094B4B46747967A2
01B4B48AAA579670
003B49A778B67900
0002A944446B6000
00000279A9510000
ENDCHAR
STARTCHAR otilde
ENCODING 245
SWIDTH 833 0
DWIDTH 17 0
BBX 16 21 0 -1
BITMAP
0004ABBBBB808620
003A355555588910
0093B65555544A00
008352BBBBBA8100
0000000000000000
0000038ABA610000
0002A845545B7000
003B4AA668B76A00
01B4B49AAB66A580
094B4B47856A58A2
1A84B4B537A67A48
56B65C100067B56B
65A94800000B848B
65A94800001B948B
46B65C100076B56B
1B85B4C648A67A48
094B4B46747967A2
01B4B48AAA579670
003B49A778B67900
0002A944446B6000
00000279A9510000
ENDCHAR
STARTCHAR odieresis
ENCODING 246
SWIDTH 833 0
DWIDTH 17 0
BBX 16 19 0 -1
BITMAP
000749A00749A000
000749A00749A000
0002122002122000
0000038ABA610000
0002A845545B7000
003B4AA668B76A00
01B4B49AAB66A580
094B4B47856A58A2
1A84B4B537A67A48
56B65C100067B56B
65A94800000B848B
65A94800001B948B
46B65C100076B56B
1B85B4C648A67A48
094B4B46747967A2
01B4B48AAA579670
003B49A778B67900
0002A944446B6000
00000279A9510000
ENDCHAR
STARTCHAR divide
ENCODING 247
SWIDTH 260 0
DWIDTH 5 0
BBX 7 13 -1 0
BITMAP
01442200
029B5600
029B5600
029B5600
00110100
6BBBBB80
35555540
35555540
01452300
029B5600
029B5600
029B5600
00110000
ENDCHAR
STARTCHAR oslash
ENCODING 248
SWIDTH 832 0
DWIDTH 17 0
BBX 16 19 0 -2
BITMAP
0000000000010000
00000000000B3100
0000038ABA74B450
0002A845545B7910
003B4AA668B76A00
01B4B49BBB66A680
094B4B47857A68A2
1A85B4B538A67A48
56B65B100067B56B
65A94800000B848B
65A94800001B948B
46B65B100076B56B
1A85B4C648967B48
094B4B46747967A2
01B4B48BBA579670
003B49A779B67900
0084A944446B6000
00675879A9510000
0002560000000000
ENDCHAR
STARTCHAR ugrave
ENCODING 249
SWIDTH 795 0
DWIDTH 16 0
BBX 16 22 0 -1
BITMAP
002A400000000000
04A48B4000000000
0029A48B40000000
000029A474000000
0000002820000000
0000000000000000
0010010000100110
38B65B0000B74AA1
38B65B0000B74AA1
38B65B0000B74AA1
38B65B0000B74AA1
38B65B0000B74AA1
38B65B0000B74AA1
38B65B0000B74AA1
38B65B0000B74AA1
29A56B0001A858B0
0B75B4A45B3B65B0
094B5B4664B4B570
02B5A4ABB94B4B00
004B4A977AA4B300
0003B844449A2000
0000048AA8300000
ENDCHAR
STARTCHAR uacute
ENCODING 250
SWIDTH 795 0
DWIDTH 16 0
BBX 16 22 0 -1
BITMAP
000000000005A100
0000000005B74A20
00000005B75B8100
000000565B810000
0000000471000000
0000000000000000
0010010000100110
38B65B0000B74AA1
38B65B0000B74AA1
38B65B0000B74AA1
38B65B0000B74AA1
38B65B0000B74AA1
38B65B0000B74AA1
38B65B0000B74AA1
38B65B0000B74AA1
29A56B0001A858B0
0B75B4A45B3B65B0
094B5B4664B4B570
02B5A4ABB94B4B00
004B4A977AA4B300
0003B844449A2000
0000048AA8300000
ENDCHAR
STARTCHAR ucircumflex
ENCODING 251
SWIDTH 795 0
DWIDTH 16 0
BBX 16 22 0 -1
BITMAP
0000005973000000
000000AB49000000
000002957B100000
00000848B6600000
00000A6574A00000
0000000000000000
0010010000100110
38B65B0000B74AA1
38B65B0000B74AA1
38B65B0000B74AA1
38B65B0000B74AA1
38B65B0000B74AA1
38B65B0000B74AA1
38B65B0000B74AA1
38B65B0000B74AA1
29A56B0001A858B0
0B75B4A45B3B65B0
094B5B4664B4B570
02B5A4ABB94B4B00
004B4A977AA4B300
0003B844449A2000
0000048AA8300000
ENDCHAR
STARTCHAR udieresis
ENCODING 252
SWIDTH 795 0
DWIDTH 16 0
BBX 16 19 0 -1
BITMAP
000A64A00A64A000
000B64A00B64A000
0002112002112000
0010010000100110
38B65B0000B74AA1
38B65B0000B74AA1
38B65B0000B74AA1
38B65B0000B74AA1
38B65B0000B74AA1
38B65B0000B74AA1
38B65B0000B74AA1
38B65B0000B74AA1
29A56B0001A858B0
0B75B4A45B3B65B0
094B5B4664B4B570
02B5A4ABB94B4B00
004B4A977AA4B300
0003B844449A2000
0000048AA8300000
ENDCHAR
STARTCHAR yacute
ENCODING 253
SWIDTH 733 0
DWIDTH 15 0
BBX 15 21 0 0
BITMAP
0000000000295000
0000000029A48700
00000029948B4000
000001949A300000
0000000930000000
0000000000000000
1001000001001000
65A859000A65A920
0A75A83046A75900
065A75A0A66A8200
00A65A777A759000
0065B75A56A73000
000A6678A66A0000
00055A957A740000
0000A38A66A00000
00005C57A6500000
00000B848A000000
00000B848B000000
00000B848B000000
00000B848B000000
00000B848B000000
ENDCHAR
STARTCHAR thorn
ENCODING 254
SWIDTH 833 0
DWIDTH 17 0
BBX 16 20 0 -3
BITMAP
0221120000000000
19A47B0000000000
19A47B0000000000
19A47B0000000000
19A47B0000000000
19A47B8BBBBB8200
19A47B6888865C40
19A47B344446C4C2
19A47B69999B4B59
19A47B8BBBA5B56B
19A47B00001B949B
19A47B8BBBB5B47B
19A47B57778B4B49
19A47B344445C4B2
19A47B7999974B40
19A47B8AAABB8200
19A47B0000000000
19A47B0000000000
19A47B0000000000
0110110000000000
ENDCHAR
STARTCHAR ydieresis
ENCODING 255
SWIDTH 733 0
DWIDTH 15 0
BBX 15 18 0 0
BITMAP
0064A91064A91000
0064A91064A91000
0011220011220000
1001000001001000
65A859000A65A920
0A75A83046A75900
065A75A0A66A8200
00A65A777A759000
0065B75A56A73000
000A6678A66A0000
00055A957A740000
0000A38A66A00000
00005C57A6500000
00000B848A000000
00000B848B000000
00000B848B000000
00000B848B000000
00000B848B000000
ENDCHAR
STARTCHAR Amacron
ENCODING 256
SWIDTH 936 0
DWIDTH 19 0
BBX 19 17 0 0
BITMAP
00000011211200000000
0000008B84B740000000
000000B94994A0000000
000005658A48A1000000
00000A47B57B57000000
0000299485B65B000000
000084B84A84A8400000
0000B65B3A4994A00000
00057B57B48A48A10000
000A48A490B56B570000
002A94A93075B65B0000
0084B75B676A84A83000
00B66B66444A49949000
047B57B6AAA77B48B100
0A49A4AAAAA8B66B5600
1A94A831111175B75B00
75B75B0000002A94A830
ENDCHAR
STARTCHAR amacron
ENCODING 257
SWIDTH 832 0
DWIDTH 17 0
BBX 16 16 0 -1
BITMAP
0000014665100000
00019B7556AB3000
003C57BBAB94A600
01C4B569974A6950
094B4B6444A695B1
1B85B4B88B694B66
56B65B200094A84A
65A948000037A55B
64A948000029B46B
46B65B000029B46B
1B75B4A65859B46B
095A4B655549B46B
01B5A569A739B46B
001B56AAAA59B46B
00017B755759B46B
0000003553000000
ENDCHAR
STARTCHAR Abreve
ENCODING 258
SWIDTH 936 0
DWIDTH 19 0
BBX 19 21 0 0
BITMAP
00000011000100000000
0000007685A830000000
00000009778700000000
00000000342000000000
00000011211200000000
0000008B84B740000000
000000B94994A0000000
000005658A48A1000000
00000A47B57B57000000
0000299485B65B000000
000084B84A84A8400000
0000B65B3A4994A00000
00057B57B48A48A10000
000A48A490B56B570000
002A94A93075B65B0000
0084B75B676A84A83000
00B66B66444A49949000
047B57B6AAA77B48B100
0A49A4AAAAA8B66B5600
1A94A831111175B75B00
75B75B0000002A94A830
ENDCHAR
STARTCHAR abreve
ENCODING 259
SWIDTH 832 0
DWIDTH 17 0
BBX 16 20 0 -1
BITMAP
0000011001100000
0000097769900000
0000029779400000
0000000441000000
0000014665100000
00019B7556AB3000
003C57BBAB94A600
01C4B569974A6950
094B4B6444A695B1
1B85B4B88B694B66
56B65B200094A84A
65A948000037A55B
64A948000029B46B
46B65B000029B46B
1B75B4A65859B46B
095A4B655549B46B
01B5A569A739B46B
001B56AAAA59B46B
00017B755759B46B
0000003553000000
ENDCHAR
STARTCHAR Aogonek
ENCODING 260
SWIDTH 937 0
DWIDTH 19 0
BBX 19 23 0 -6
BITMAP
00000002212100000000
0000006D66B560000000
000000B85B75B0000000
00000384A94A83000000
00000949A49A49000000
00001B7577B47B100000
000066B66B66B6600000
0000B57B485B75B00000
00039A4993A94A930000
00094A84A0A48A490000
000B75B65057B57B1000
0056B56B676B65B66000
00B48B4844484A74B000
02994996AAA6994A9200
084A84A9AAA9B48A4800
0B65B651111156B57B00
56B57B1594000B75B650
00000096320000000000
000000A6A30000000000
0000029A110000000000
0000029B460000000000
0000029B460000000000
00000167340000000000
ENDCHAR
STARTCHAR aogonek
ENCODING 261
SWIDTH 832 0
DWIDTH 17 0
BBX 16 22 0 -7
BITMAP
0000014665100000
00019B7556AB3000
003C57BBAB94A600
01C4B569974A6950
094B4B6444A695B1
1B85B4B88B694B66
56B65B200094A84A
65A948000037A55B
64A948000029B46B
46B65B000029B46B
1B75B4A65859B46B
095A4B655549B46B
01B5A569A739B46B
001B56AAAA59B46B
00017B755759B46B
000001AF73000000
00000B4410000000
0000479810000000
000065B200000000
000065B820000000
000065B820000000
0000437510000000
ENDCHAR
STARTCHAR Cacute
ENCODING 262
SWIDTH 852 0
DWIDTH 17 0
BBX 17 24 0 -1
BITMAP
000000000000295000
000000000029A48700
0000000029948B4000
00000001949A300000
000000000930000000
000000000000000000
0000015ABBB9400000
00006B6457548B2000
000975B8546AA4A500
0086975ABAB94A5A30
039869858974A5A320
0A498698214A591000
1A94A7500000700000
56B75B000000000000
65A958000000000000
65A958000000000000
46B65B000000000000
1A84B5700001900000
0A4A686A546B4B2100
02A687A46755B4B430
00687A49BBB74B4B20
000794AA778B84B300
00004B844445A91000
000000379A96200000
ENDCHAR
STARTCHAR cacute
ENCODING 263
SWIDTH 736 0
DWIDTH 15 0
BBX 15 22 0 -1
BITMAP
0000000000029500
0000000003A94960
00000003A949A300
0000002849A30000
0000000193000000
0000000000000000
0000038AB9610000
0002A845545B7000
003B4AA668B66A00
01B4B49ABB66A410
094B4B47856A3000
1A84B4B537920000
56B65C1000100000
65A9480000000000
65A9480000000000
46B65C1000100000
1B85B4C648930000
094B4B4674794000
01B4B48ABA579510
003B49A779B67900
0002A944446B6000
00000279A9510000
ENDCHAR
STARTCHAR Cdotaccent
ENCODING 266
SWIDTH 852 0
DWIDTH 17 0
BBX 17 23 0 -1
BITMAP
000000013330000000
000000038881000000
00000004BBB1000000
000000025550000000
000000025550000000
0000015ABBB9400000
00006B6457548B2000
000975B8546AA4A500
0086975ABAB94A5A30
039869858974A5A320
0A498698214A591000
1A94A7500000700000
56B75B000000000000
65A958000000000000
65A958000000000000
46B65B000000000000
1A84B5700001900000
0A4A686A546B4B2100
02A687A46755B4B430
00687A49BBB74B4B20
000794AA778B84B300
00004B844445A91000
000000379A96200000
ENDCHAR
STARTCHAR cdotaccent
ENCODING 267
SWIDTH 736 0
DWIDTH 15 0
BBX 15 21 0 -1
BITMAP
0000001333000000
0000004888000000
0000005BBB000000
0000003555000000
0000002555000000
0000038AB9610000
0002A845545B7000
003B4AA668B66A00
01B4B49ABB66A410
094B4B47856A3000
1A84B4B537920000
56B65C1000100000
65A9480000000000
65A9480000000000
46B65C1000100000
1B85B4C648930000
094B4B4674794000
01B4B48ABA579510
003B49A779B67900
0002A944446B6000
00000279A9510000
ENDCHAR
STARTCHAR Ccaron
ENCODING 268
SWIDTH 852 0
DWIDTH 17 0
BBX 17 24 0 -1
BITMAP
000000639187200000
00000029975B000000
0000000B1B57000000
0000000698A1000000
00000001E490000000
000000000000000000
0000015ABBB9400000
00006B6457548B2000
000975B8546AA4A500
0086975ABAB94A5A30
039869858974A5A320
0A498698214A591000
1A94A7500000700000
56B75B000000000000
65A958000000000000
65A958000000000000
46B65B000000000000
1A84B5700001900000
0A4A686A546B4B2100
02A687A46755B4B430
00687A49BBB74B4B20
000794AA778B84B300
00004B844445A91000
000000379A96200000
ENDCHAR
STARTCHAR ccaron
ENCODING 269
SWIDTH 736 0
DWIDTH 15 0
BBX 15 22 0 -1
BITMAP
0000073828720000
0000038975B00000
000000B1B6600000
000000697B100000
0000001E48000000
0000000000000000
0000038AB9610000
0002A845545B7000
003B4AA668B66A00
01B4B49ABB66A410
094B4B47856A3000
1A84B4B537920000
56B65C1000100000
65A9480000000000
65A9480000000000
46B65C1000100000
1B85B4C648930000
094B4B4674794000
01B4B48ABA579510
003B49A779B67900
0002A944446B6000
00000279A9510000
ENDCHAR
STARTCHAR Dcaron
ENCODING 270
SWIDTH 886 0
DWIDTH 18 0
BBX 18 23 0 0
BITMAP
000000945549000000
000000849B57000000
0000002939A2000000
0000000A94A0000000
00000005C640000000
000000000000000000
033333333320000000
1C888888889B920000
198BBBBBBBA74B3000
19A255555545B4B300
19A49555557B5B4B00
19A46CBBBBB5B4B650
19A46B00000B3A84B0
19A46B0000038A47B0
19A46B000000A849A1
19A46B000001A849A1
19A46B0000047B57B0
19A46B00002B4993A0
19A46ABBBBA4B4A740
19A4B888889A4B4B00
19A344444447B4B200
1969999999856B2000
1DBBBBBBBBBB600000
ENDCHAR
STARTCHAR dcaron
ENCODING 271
SWIDTH 1084 0
DWIDTH 22 0
BBX 21 15 0 0
BITMAP
0111111110000000042560
1DAAAAAAAAB820000849B0
197AAAAAA964B5000849B0
19A24444455B59500239B0
19A4A77778B695B20395B0
19A47BBBBA595B48033680
19A47B0000A4B65B05A600
19A47B000029A48B000000
19A47B000029A47B000000
19A47B0001A4B75B000000
19A47ABBBA4A5B58000000
19A4B88889B5A5B1000000
19A34444456B5A50000000
196999999855B500000000
1DBBBBBBBBB81000000000
ENDCHAR
STARTCHAR Dcroat
ENCODING 272
SWIDTH 888 0
DWIDTH 18 0
BBX 19 17 -1 0
BITMAP
00333333333200000000
01C888888889B9200000
0198BBBBBBBA74B30000
019A255555555B4B3000
019A49555557B5B4B000
019A47CBBBBB5B4B6500
019A47B00000B3A84B00
A49A47B8B60038A47B00
729A47B674000A849A10
209A47B121001A849A10
969A47B7950047B47B00
019A47B00002B4994A00
019A47ABBBBA4B4A7400
019A4B888889A4B4B000
019A344444447B4B2000
01969999999856B20000
01DBBBBBBBBBB6000000
ENDCHAR
STARTCHAR dcroat
ENCODING 273
SWIDTH 833 0
DWIDTH 17 0
BBX 17 15 -1 0
BITMAP
001111111100000000
01DAAAAAAAAB820000
0197AAAAAA964B5000
019A24444455B59500
019A4A77778B595B10
019A46BBBBA5A5B570
219A46B1210A4B65B0
839A46B795029A47B0
A79A46B8B6038B47B0
019A46B0001A4B75B0
019A46ABBBA4A5B570
019A4B88889B5A5B10
019A34444456B5A500
0196999999855B5000
01DBBBBBBBBB810000
ENDCHAR
STARTCHAR Emacron
ENCODING 274
SWIDTH 706 0
DWIDTH 14 0
BBX 14 17 0 0
BITMAP
02211233333331
19A46C88888882
19A46CBBBBBBB3
19A46B55555552
19A46B55555552
19A46B00000000
19A46B00000000
19A46CBBB70000
19A46C77740000
19A46B44430000
19A46CAAA70000
19A46B00000000
19A46B00000000
19A46C88888882
19A46B44444441
19A46C99999993
19A46CBBBBBBB3
ENDCHAR
STARTCHAR emacron
ENCODING 275
SWIDTH 666 0
DWIDTH 13 0
BBX 13 15 0 0
BITMAP
01100111111110
19A46CAAAAAA50
19A46CAAAAAA60
19A46B44444420
19A46C77777740
19A46B00000000
19A46CBBBBBB20
19A46C66666610
19A46B55555510
19A46CBBBBBB20
19A46B00000000
19A46C88888840
19A46B44444420
19A46C99999950
19A46CBBBBBB60
ENDCHAR
STARTCHAR Ebreve
ENCODING 276
SWIDTH 706 0
DWIDTH 14 0
BBX 14 21 0 0
BITMAP
00001100110000
00009776990000
00002977840000
00000044100000
02211233333331
19A46C88888882
19A46CBBBBBBB3
19A46B55555552
19A46B55555552
19A46B00000000
19A46B00000000
19A46CBBB70000
19A46C77740000
19A46B44430000
19A46CAAA70000
19A46B00000000
19A46B00000000
19A46C88888882
19A46B44444441
19A46C99999993
19A46CBBBBBBB3
ENDCHAR
STARTCHAR ebreve
ENCODING 277
SWIDTH 666 0
DWIDTH 13 0
BBX 13 19 0 0
BITMAP
00001100110000
00018A58680000
00006877910000
00000143000000
01100111111110
19A46CAAAAAA50
19A46CAAAAAA60
19A46B44444420
19A46C77777740
19A46B00000000
19A46CBBBBBB20
19A46C66666610
19A46B55555510
19A46CBBBBBB20
19A46B00000000
19A46C88888840
19A46B44444420
19A46C99999950
19A46CBBBBBB60
ENDCHAR
STARTCHAR Edotaccent
ENCODING 278
SWIDTH 706 0
DWIDTH 14 0
BBX 14 22 0 0
BITMAP
00000244300000
00000477600000
000007BB900000
00000477600000
00000344300000
02211233333331
19A46C88888882
19A46CBBBBBBB3
19A46B55555552
19A46B55555552
19A46B00000000
19A46B00000000
19A46CBBB70000
19A46C77740000
19A46B44430000
19A46CAAA70000
19A46B00000000
19A46B00000000
19A46C88888882
19A46B44444441
19A46C99999993
19A46CBBBBBBB3
ENDCHAR
STARTCHAR edotaccent
ENCODING 279
SWIDTH 666 0
DWIDTH 13 0
BBX 13 20 0 0
BITMAP
00000444200000
00000777300000
00000BBB500000
00000777300000
00000444200000
01100111111110
19A46CAAAAAA50
19A46CAAAAAA60
19A46B44444420
19A46C77777740
19A46B00000000
19A46CBBBBBB20
19A46C66666610
19A46B55555510
19A46CBBBBBB20
19A46B00000000
19A46C88888840
19A46B44444420
19A46C99999950
19A46CBBBBBB60
ENDCHAR
STARTCHAR Eogonek
ENCODING 280
SWIDTH 706 0
DWIDTH 14 0
BBX 14 23 0 -6
BITMAP
02211233333331
29B46C88888882
29B46DBBBBBBB3
29B46C55555552
29B46C55555552
29B46B00000000
29B46B00000000
29B46DBBB70000
29B46C77740000
29B46B44430000
29B46CAAA70000
29B46B00000000
29B46B00000000
29B46C88888882
29B46B44444441
29B46C99999993
29B46DBBBBBFF6
0000000000A541
00000000029892
00000000047B11
00000000047B74
00000000047B74
00000000024742
ENDCHAR
STARTCHAR eogonek
ENCODING 281
SWIDTH 666 0
DWIDTH 13 0
BBX 13 21 0 -6
BITMAP
01100111111110
19A46CAAAAAA50
19A46CAAAAAA60
19A46B44444420
19A46C77777740
19A46B00000000
19A46CBBBBBB20
19A46C66666610
19A46B55555510
19A46CBBBBBB20
19A46B00000000
19A46C88888840
19A46B44444420
19A46C99999950
19A46CBBBBFFC0
00000000078320
000000000B4B40
000000000B8320
000000000B8480
000000000B8480
00000000075350
ENDCHAR
STARTCHAR Ecaron
ENCODING 282
SWIDTH 706 0
DWIDTH 14 0
BBX 14 23 0 0
BITMAP
00009464690000
0000659A490000
00001A2A830000
00000995B00000
000003D5600000
00000000000000
02211233333331
19A46C88888882
19A46CBBBBBBB3
19A46B55555552
19A46B55555552
19A46B00000000
19A46B00000000
19A46CBBB70000
19A46C77740000
19A46B44430000
19A46CAAA70000
19A46B00000000
19A46B00000000
19A46C88888882
19A46B44444441
19A46C99999993
19A46CBBBBBBB3
ENDCHAR
STARTCHAR ecaron
ENCODING 283
SWIDTH 666 0
DWIDTH 13 0
BBX 13 21 0 0
BITMAP
00028828370000
0000B56A830000
00006675B00000
00001BB5700000
0000088A100000
00000000000000
01100111111110
19A46CAAAAAA50
19A46CAAAAAA60
19A46B44444420
19A46C77777740
19A46B00000000
19A46CBBBBBB20
19A46C66666610
19A46B55555510
19A46CBBBBBB20
19A46B00000000
19A46C88888840
19A46B44444420
19A46C99999950
19A46CBBBBBB60
ENDCHAR
STARTCHAR Gbreve
ENCODING 286
SWIDTH 908 0
DWIDTH 18 0
BBX 18 22 0 -1
BITMAP
000000110011000000
0000007685A8200000
000000197787000000
000000003420000000
0000015ABBB9400000
00006B6457548B2000
000975B8546AA4A500
0086975ABAB94A5A30
039869858974A5A320
0A498698214A591000
1A94A7500000700000
56B75B000000000000
65A958000000424522
65A948000000948B55
46B65B000000948B55
1A94B8500000948B55
0A49869A5459D48B55
039779946765B48B55
00867949BBB9B48B55
000895AA768AE48B55
00004B845555C48B55
00000048AA97300000
ENDCHAR
STARTCHAR gbreve
ENCODING 287
SWIDTH 827 0
DWIDTH 17 0
BBX 16 20 0 -1
BITMAP
0000011001100000
000008685A810000
0000019778600000
0000000341000000
0000038AB9610000
0002A845545B7000
003B4AA668B66A00
01B4B49ABB66A410
094B4B47856A3000
1A84B4B537920000
56B65C1000100000
65A9480000011111
65A948000038B65B
46B65C100038B65B
1B85B4C646C8B65B
094B4B467578B65B
01B4B48ABB98B65B
003B49A778C8B65B
0002A9444478B65B
00000279A9510000
ENDCHAR
STARTCHAR Gdotaccent
ENCODING 288
SWIDTH 908 0
DWIDTH 18 0
BBX 18 23 0 -1
BITMAP
000000013330000000
000000038881000000
00000004BBB1000000
000000025550000000
000000025550000000
0000015ABBB9400000
00006B6457548B2000
000975B8546AA4A500
0086975ABAB94A5A30
039869858974A5A320
0A498698214A591000
1A94A7500000700000
56B75B000000000000
65A958000000424522
65A948000000948B55
46B65B000000948B55
1A94B8500000948B55
0A49869A5459D48B55
039779946765B48B55
00867949BBB9B48B55
000895AA768AE48B55
00004B845555C48B55
00000048AA97300000
ENDCHAR
STARTCHAR gdotaccent
ENCODING 289
SWIDTH 827 0
DWIDTH 17 0
BBX 16 21 0 -1
BITMAP
0000001333000000
0000004888000000
0000005BBB000000
0000003555000000
0000002555000000
0000038AB9610000
0002A845545B7000
003B4AA668B66A00
01B4B49ABB66A410
094B4B47856A3000
1A84B4B537920000
56B65C1000100000
65A9480000011111
65A948000038B65B
46B65C100038B65B
1B85B4C646C8B65B
094B4B467578B65B
01B4B48ABB98B65B
003B49A778C8B65B
0002A9444478B65B
00000279A9510000
ENDCHAR
STARTCHAR Gcommaaccent
ENCODING 290
SWIDTH 908 0
DWIDTH 18 0
BBX 18 25 0 -8
BITMAP
0000015ABBB9400000
00006B6457548B2000
000975B8546AA4A500
0086975ABAB94A5A30
039869858974A5A320
0A498698214A591000
1A94A7500000700000
56B75B000000000000
65A958000000424522
65A948000000948B55
46B65B000000948B55
1A94B8500000948B55
0A49869A5459D48B55
039779946765B48B55
00867949BBB9B48B55
000895AA768AE48B55
00004B845555C48B55
00000048AA97300000
000000043660000000
000000074AA1000000
000000074AA1000000
0000000229A1000000
00000003A5B0000000
000000023680000000
00000005A600000000
ENDCHAR
STARTCHAR gcommaaccent
ENCODING 291
SWIDTH 827 0
DWIDTH 17 0
BBX 16 16 0 -1
BITMAP
0000038AB9610000
0002A845545B7000
003B4AA668B66A00
01B4B49ABB66A410
094B4B47856A3000
1A84B4B537920000
56B65C1000100000
65A9480000011111
65A948000038B65B
46B65C100038B65B
1B85B4C646C8B65B
094B4B467578B65B
01B4B48ABB98B65B
003B49A778C8B65B
0002A9444478B65B
00000279A9510000
ENDCHAR
STARTCHAR Hcircumflex
ENCODING 292
SWIDTH 901 0
DWIDTH 18 0
BBX 18 23 0 0
BITMAP
00000004A640000000
0000000AA4A0000000
0000001A48A1000000
000000758B57000000
000000A5665A000000
000000000000000000
022112000000211220
19A46B000000B74A91
19A46B000000B74A91
19A46B000000B74A91
19A46B000000B74A91
19A46B000000B74A91
19A46B000000B74A91
19A46CBBBBBBC74A91
19A46C777777C74A91
19A46B444444B74A91
19A46CAAAAAAC74A91
19A46B000000B74A91
19A46B000000B74A91
19A46B000000B74A91
19A46B000000B74A91
19A46B000000B74A91
19A46B000000B74A91
ENDCHAR
STARTCHAR hcircumflex
ENCODING 293
SWIDTH 830 0
DWIDTH 17 0
BBX 16 21 0 0
BITMAP
0000000C38000000
0000005A7B000000
000000B1B6500000
0000029884B00000
0000074A29920000
0000000000000000
0110010000001001
19A46B000047B64A
19A46B000047B64A
19A46B000047B64A
19A46B000047B64A
19A46B222257B64A
19A46C8888A7B64A
19A46CBBBBC7B64A
19A46B555577B64A
19A46C666687B64A
19A46B000047B64A
19A46B000047B64A
19A46B000047B64A
19A46B000047B64A
19A46B000047B64A
ENDCHAR
STARTCHAR Hbar
ENCODING 294
SWIDTH 901 0
DWIDTH 18 0
BBX 20 17 -1 0
BITMAP
00221120000002112200
019A47B000000B64A910
209A47B233332B64A901
439A47B688886B64A933
679A47B8BBBB8B64A985
019A47B000000B64A910
019A47B000000B64A910
019A47CBBBBBBC64A910
019A47C777777C64A910
019A47B444444B64A910
019A47CAAAAAAC64A910
019A47B000000B64A910
019A47B000000B64A910
019A47B000000B64A910
019A47B000000B64A910
019A47B000000B64A910
019A47B000000B64A910
ENDCHAR
STARTCHAR hbar
ENCODING 295
SWIDTH 830 0
DWIDTH 17 0
BBX 18 15 -1 0
BITMAP
001100100000010010
019A47B000047B64A0
339A47B799907B64A8
029A47B111147B64A1
359A47B688877B64A7
019A47B222257B64A0
019A47C8888A7B64A0
019A47CBBBBC7B64A0
019A47B555577B64A0
019A47B666687B64A0
019A47B000047B64A0
019A47B000047B64A0
019A47B000047B64A0
019A47B000047B64A0
019A47B000047B64A0
ENDCHAR
STARTCHAR Itilde
ENCODING 296
SWIDTH 338 0
DWIDTH 7 0
BBX 13 22 -3 0
BITMAP
03ABBBBB908530
2B355555579830
74B65555544B00
7361BBBBBA8100
00000000000000
00002211200000
00019A46B00000
00019A46B00000
00019A46B00000
00019A46B00000
00019A46B00000
00019A46B00000
00019A46B00000
00019A46B00000
00019A46B00000
00019A46B00000
00019A46B00000
00019A46B00000
00019A46B00000
00019A46B00000
00019A46B00000
00019A46B00000
ENDCHAR
STARTCHAR itilde
ENCODING 297
SWIDTH 337 0
DWIDTH 7 0
BBX 13 20 -3 0
BITMAP
03ABBBBB908530
2B355555579830
74B65555544B00
7361BBBBBA8100
00000000000000
00001100100000
00019A46B00000
00019A46B00000
00019A46B00000
00019A46B00000
00019A46B00000
00019A46B00000
00019A46B00000
00019A46B00000
00019A46B00000
00019A46B00000
00019A46B00000
00019A46B00000
00019A46B00000
00019A46B00000
ENDCHAR
STARTCHAR Imacron
ENCODING 298
SWIDTH 338 0
DWIDTH 7 0
BBX 6 17 0 0
BITMAP
022112
19A46B
19A46B
19A46B
19A46B
19A46B
19A46B
19A46B
19A46B
19A46B
19A46B
19A46B
19A46B
19A46B
19A46B
19A46B
19A46B
ENDCHAR
STARTCHAR imacron
ENCODING 299
SWIDTH 337 0
DWIDTH 7 0
BBX 6 15 0 0
BITMAP
011001
19A46B
19A46B
19A46B
19A46B
19A46B
19A46B
19A46B
19A46B
19A46B
19A46B
19A46B
19A46B
19A46B
19A46B
ENDCHAR
STARTCHAR Ibreve
ENCODING 300
SWIDTH 338 0
DWIDTH 7 0
BBX 7 21 0 0
BITMAP
11000100
7685A830
09778700
00342000
02211200
19A46B00
19A46B00
19A46B00
19A46B00
19A46B00
19A46B00
19A46B00
19A46B00
19A46B00
19A46B00
19A46B00
19A46B00
19A46B00
19A46B00
19A46B00
19A46B00
ENDCHAR
STARTCHAR ibreve
ENCODING 301
SWIDTH 337 0
DWIDTH 7 0
BBX 7 19 0 0
BITMAP
11000100
7685A830
09778700
00342000
01100100
19A46B00
19A46B00
19A46B00
19A46B00
19A46B00
19A46B00
19A46B00
19A46B00
19A46B00
19A46B00
19A46B00
19A46B00
19A46B00
19A46B00
ENDCHAR
STARTCHAR Iogonek
ENCODING 302
SWIDTH 338 0
DWIDTH 7 0
BBX 6 23 0 -6
BITMAP
022112
19A46B
19A46B
19A46B
19A46B
19A46B
19A46B
19A46B
19A46B
19A46B
19A46B
19A46B
19A46B
19A46B
19A46B
19A46B
19A7FF
003A33
0093B6
00A462
00B46B
00B46B
007347
ENDCHAR
STARTCHAR iogonek
ENCODING 303
SWIDTH 337 0
DWIDTH 7 0
BBX 6 21 0 -6
BITMAP
011001
19A46B
19A46B
19A46B
19A46B
19A46B
19A46B
19A46B
19A46B
19A46B
19A46B
19A46B
19A46B
19A46B
19A7FF
003B33
0083B6
00A472
00A47B
00A47B
006347
ENDCHAR
STARTCHAR Idotaccent
ENCODING 304
SWIDTH 338 0
DWIDTH 7 0
BBX 6 22 0 0
BITMAP
013330
038881
04BBB1
025551
025551
022112
19A46B
19A46B
19A46B
19A46B
19A46B
19A46B
19A46B
19A46B
19A46B
19A46B
19A46B
19A46B
19A46B
19A46B
19A46B
19A46B
ENDCHAR
STARTCHAR dotlessi
ENCODING 305
SWIDTH 337 0
DWIDTH 7 0
BBX 6 15 0 0
BITMAP
011001
19A46B
19A46B
19A46B
19A46B
19A46B
19A46B
19A46B
19A46B
19A46B
19A46B
19A46B
19A46B
19A46B
19A46B
ENDCHAR
STARTCHAR IJ
ENCODING 306
SWIDTH 774 0
DWIDTH 16 0
BBX 15 18 0 -1
BITMAP
0221120001121110
29B46B00055B8490
29B46B00055B8490
29B46B00055B8490
29B46B00055B8490
29B46B00055B8490
29B46B00055B8490
29B46B00055B8490
29B46B00055B8490
29B46B00055B8490
29B46B00055B8490
29B46B00065A8480
29B46B024B48A570
29B46B0674B3A930
29B46B08BA4B4B00
29B46B0568B4B200
29B46B03447B2000
00000008A9500000
ENDCHAR
STARTCHAR ij
ENCODING 307
SWIDTH 729 0
DWIDTH 15 0
BBX 14 18 0 -3
BITMAP
01100100001001
19A47B0038B55B
19A47B0038B55B
19A47B0038B55B
19A47B0038B55B
19A47B0038B55B
19A47B0038B55B
19A47B0038B55B
19A47B0038B55B
19A47B0038B55B
19A47B0038B55B
19A47B0075B74A
19A47B08776A57
19A47B06B877A2
19A47B04498770
00000008849800
00000008BA3000
00000001000000
ENDCHAR
STARTCHAR Jcircumflex
ENCODING 308
SWIDTH 434 0
DWIDTH 9 0
BBX 9 24 0 -1
BITMAP
0000C38000
0005A8A100
000A1B5600
0029875B00
0074A19820
0000000000
0001211200
0029B56B00
0029B56B00
0029B56B00
0029B56B00
0029B56B00
0029B56B00
0029B56B00
0029B56B00
0029B56B00
0029B56B00
0028B55B00
23A5A74A00
474A4B5600
6BB5A5B100
368B5A4000
2446B40000
6A96100000
ENDCHAR
STARTCHAR jcircumflex
ENCODING 309
SWIDTH 393 0
DWIDTH 8 0
BBX 8 24 0 -3
BITMAP
000A4900
002AA830
0084A490
00B667B1
046A0A55
00000000
00100110
00B849B0
00B849B0
00B849B0
00B849B0
00B849B0
00B849B0
00B849B0
00B849B0
00B849B0
00B849B0
039A47B0
695A84A0
49A4A750
247A4A00
5847A100
5BA50000
10000000
ENDCHAR
STARTCHAR Kcommaaccent
ENCODING 310
SWIDTH 815 0
DWIDTH 16 0
BBX 16 25 0 -8
BITMAP
0221120000202112
19A46B0001B66B48
19A46B00075B57B1
19A46B001B66B580
19A46B0085B56B10
19A46B01B75B5700
19A46B084B66B100
19A46B1A75B57000
19A46B84B66B1000
19A46B75B57A1000
19A46B1B66B48000
19A46B075B57A200
19A46B00B57B4900
19A46B0066B48A20
19A46B000B57B490
19A46B00066B48A2
19A46B0000B57A49
0000000000000000
0000003365100000
00000055B8300000
00000055B8300000
00000011B8200000
000000297A100000
000000245A000000
0000004A71000000
ENDCHAR
STARTCHAR kcommaaccent
ENCODING 311
SWIDTH 801 0
DWIDTH 16 0
BBX 16 23 0 -8
BITMAP
0110010000100101
19A46B0002A84B66
19A46B000A4A84B0
19A46B003894A840
19A46B00B4994A00
19A46B057A499300
19A46B0B57A49000
19A46B75B57A1000
19A46B75B57B1000
19A46B1B57B49000
19A46B066B489200
19A46B00B48A4A00
19A46B0048A4A840
19A46B000A4984B0
19A46B0002994B75
0000000000000000
0000004356000000
000000749A000000
000000749A000000
000000229A000000
0000003A5B000000
0000002378000000
0000005A60000000
ENDCHAR
STARTCHAR kgreenlandic
ENCODING 312
SWIDTH 801 0
DWIDTH 16 0
BBX 16 15 0 0
BITMAP
0110010000100101
19A46B0002A84B66
19A46B000A4A84B0
19A46B003894A840
19A46B00B4994A00
19A46B057A499300
19A46B0B57A49000
19A46B75B57A1000
19A46B75B57B1000
19A46B1B57B49000
19A46B066B489200
19A46B00B48A4A00
19A46B0048A4A840
19A46B000A4984B0
19A46B0002994B75
ENDCHAR
STARTCHAR Lacute
ENCODING 313
SWIDTH 604 0
DWIDTH 12 0
BBX 13 23 0 0
BITMAP
0000000003A400
00000003A94950
000003A849A300
0000284A920000
00000192000000
00000000000000
02211200000000
19A46B00000000
19A46B00000000
19A46B00000000
19A46B00000000
19A46B00000000
19A46B00000000
19A46B00000000
19A46B00000000
19A46B00000000
19A46B00000000
19A46B00000000
19A46B00000000
19A46C88888300
19A46B44444200
19A46C99999400
19A46CBBBBB500
ENDCHAR
STARTCHAR lacute
ENCODING 314
SWIDTH 583 0
DWIDTH 12 0
BBX 11 21 0 0
BITMAP
000000296000
000029A48700
0029A48B4000
01948A400000
000930000000
000000000000
011001000000
19A46B000000
19A46B000000
19A46B000000
19A46B000000
19A46B000000
19A46B000000
19A46B000000
19A46B000000
19A46B000000
19A46B000000
19A46C888880
19A46B444440
19A46C999990
19A46CBBBBB0
ENDCHAR
STARTCHAR Lcommaaccent
ENCODING 315
SWIDTH 604 0
DWIDTH 12 0
BBX 12 25 0 -8
BITMAP
022112000000
19A46B000000
19A46B000000
19A46B000000
19A46B000000
19A46B000000
19A46B000000
19A46B000000
19A46B000000
19A46B000000
19A46B000000
19A46B000000
19A46B000000
19A46C888883
19A46B444442
19A46C999994
19A46CBBBBB5
000000000000
000053560000
0000848B0000
0000848B0000
0000238B0000
00003A4B0000
000033870000
00006A500000
ENDCHAR
STARTCHAR lcommaaccent
ENCODING 316
SWIDTH 583 0
DWIDTH 12 0
BBX 11 23 0 -8
BITMAP
011001000000
19A46B000000
19A46B000000
19A46B000000
19A46B000000
19A46B000000
19A46B000000
19A46B000000
19A46B000000
19A46B000000
19A46B000000
19A46C888880
19A46B444440
19A46C999990
19A46CBBBBB0
000000000000
000063360000
0000B65B0000
0000B65B0000
0000265B0000
00005B3A0000
000043A40000
000089400000
ENDCHAR
STARTCHAR Lcaron
ENCODING 317
SWIDTH 856 0
DWIDTH 17 0
BBX 17 17 0 0
BITMAP
022112000000055240
29B46B0000001AA470
29B46B0000001AA470
29B46B00000003A470
29B46B00000006B560
29B46B000000053B10
29B46B0000000A9200
29B46B000000000000
29B46B000000000000
29B46B000000000000
29B46B000000000000
29B46B000000000000
29B46B000000000000
29B46C888883000000
29B46B444442000000
29B46C999994000000
29B46DBBBBB5000000
ENDCHAR
STARTCHAR lcaron
ENCODING 318
SWIDTH 584 0
DWIDTH 12 0
BBX 11 15 0 0
BITMAP
011001052360
19A47B0A46B0
19A47B0A46B0
19A47B0356B0
19A47B04B3A0
19A47B043860
19A47B07A500
19A47B000000
19A47B000000
19A47B000000
19A47B000000
19A47C888880
19A47B444440
19A47C999990
19A47CBBBBB0
ENDCHAR
STARTCHAR Ldot
ENCODING 319
SWIDTH 604 0
DWIDTH 12 0
BBX 12 17 0 0
BITMAP
022112000000
19A46B000000
19A46B000000
19A46B000000
19A46B000000
19A46B000000
19A46B044420
19A46B077730
19A46B0BBB50
19A46B077730
19A46B044420
19A46B000000
19A46B000000
19A46C888883
19A46B444442
19A46C999994
19A46CBBBBB5
ENDCHAR
STARTCHAR ldot
ENCODING 320
SWIDTH 582 0
DWIDTH 12 0
BBX 11 15 0 0
BITMAP
011001000000
19A47B000000
19A47B000000
19A47B044420
19A47B077740
19A47B0ABB60
19A47B067740
19A47B044420
19A47B000000
19A47B000000
19A47B000000
19A47C888880
19A47B444440
19A47C999990
19A47CBBBBB0
ENDCHAR
STARTCHAR Lslash
ENCODING 321
SWIDTH 604 0
DWIDTH 12 0
BBX 14 17 -2 0
BITMAP
00022112000000
0019A47B000000
0019A47B000000
0019A47B000000
0019A47B038200
0019A47B785100
0019A47B5A9100
1639A47B15A200
3519A47B651000
3A29A47B000000
2969A47B000000
2219A47B000000
0019A47B000000
0019A47C888884
0019A47B444442
0019A47C999994
0019A47CBBBBB5
ENDCHAR
STARTCHAR lslash
ENCODING 322
SWIDTH 581 0
DWIDTH 12 0
BBX 13 15 -2 0
BITMAP
00011001000000
0019A47B000000
0019A47B000000
0019A47B027200
0019A47B795100
0019A47B4AA100
0539A47B339200
3619A47B661000
3A29A47B000000
1869A47B000000
2319A47B000000
0019A47C888880
0019A47B444440
0019A47C999990
0019A47CBBBBB0
ENDCHAR
STARTCHAR Nacute
ENCODING 323
SWIDTH 877 0
DWIDTH 18 0
BBX 17 23 0 0
BITMAP
0000000000006A0000
00000000006B65A100
000000017B65B71000
0000000756B7100000
000000006600000000
000000000000000000
021120200001121120
1F4B67A200056B8490
1BB66B4A00056B8490
1976B4A750056B8490
195B4985B1056B8490
19A4984B58056B8490
19A294B58A356B8490
19A46B57A4B56B8490
19A4667A4B675B8490
19A468B4A76B1B8490
19A46B3A75B4998490
19A46B085B49958490
19A46B01B5894B7490
19A46B0058A4B68390
19A46B000A4B67B390
19A46B0002A66B4B90
19A46B000075B4A890
ENDCHAR
STARTCHAR nacute
ENCODING 324
SWIDTH 787 0
DWIDTH 16 0
BBX 15 21 0 0
BITMAP
000000000005A100
0000000005B75A20
00000006B65B8100
000000665B710000
0000000571000000
0000000000000000
0100101000010010
1E4A76B1000B46B0
1CA85B49000B46B0
1994B58A300B46B0
195B67A4B00B46B0
19A76B4A750B46B0
19A1B4995B0B46B0
19A47894B57B46B0
19A46A4B66B846B0
19A462A75B4A46B0
19A46084B49976B0
19A4601B58A4B3B0
19A460066B4B76B0
19A46000B4A85BB0
19A460004994B5C0
ENDCHAR
STARTCHAR Ncommaaccent
ENCODING 325
SWIDTH 877 0
DWIDTH 18 0
BBX 17 25 0 -8
BITMAP
021120200001121120
1F4B67A200056B8490
1BB66B4A00056B8490
1976B4A750056B8490
195B4985B1056B8490
19A4984B58056B8490
19A294B58A356B8490
19A46B57A4B56B8490
19A4667A4B675B8490
19A468B4A76B1B8490
19A46B3A75B4998490
19A46B085B49958490
19A46B01B5894B7490
19A46B0058A4B68390
19A46B000A4B67B390
19A46B0002A66B4B90
19A46B000075B4A890
000000000000000000
000000065350000000
0000000B9480000000
0000000B9480000000
000000029480000000
00000007B460000000
000000043B20000000
0000000A9200000000
ENDCHAR
STARTCHAR ncommaaccent
ENCODING 326
SWIDTH 787 0
DWIDTH 16 0
BBX 15 23 0 -8
BITMAP
0100101000010010
1E4A76B1000B46B0
1CA85B49000B46B0
1994B58A300B46B0
195B67A4B00B46B0
19A76B4A750B46B0
19A1B4995B0B46B0
19A47894B57B46B0
19A46A4B66B846B0
19A462A75B4A46B0
19A46084B49976B0
19A4601B58A4B3B0
19A460066B4B76B0
19A46000B4A85BB0
19A460004994B5C0
0000000000000000
0000006435000000
000000B749000000
000000B749000000
0000002849000000
0000006B38000000
00000043B3000000
0000009930000000
ENDCHAR
STARTCHAR Ncaron
ENCODING 327
SWIDTH 877 0
DWIDTH 18 0
BBX 17 23 0 0
BITMAP
000001872838000000
000000A47B74000000
0000005676B0000000
0000000BB570000000
000000088910000000
000000000000000000
021120200001121120
1F4B67A200056B8490
1BB66B4A00056B8490
1976B4A750056B8490
195B4985B1056B8490
19A4984B58056B8490
19A294B58A356B8490
19A46B57A4B56B8490
19A4667A4B675B8490
19A468B4A76B1B8490
19A46B3A75B4998490
19A46B085B49958490
19A46B01B5894B7490
19A46B0058A4B68390
19A46B000A4B67B390
19A46B0002A66B4B90
19A46B000075B4A890
ENDCHAR
STARTCHAR ncaron
ENCODING 328
SWIDTH 787 0
DWIDTH 16 0
BBX 15 21 0 0
BITMAP
0000096373800000
00000947B6500000
000004757B000000
000000BA48000000
0000007A82000000
0000000000000000
0100101000010010
1E4A76B1000B46B0
1CA85B49000B46B0
1994B58A300B46B0
195B67A4B00B46B0
19A76B4A750B46B0
19A1B4995B0B46B0
19A47894B57B46B0
19A46A4B66B846B0
19A462A75B4A46B0
19A46084B49976B0
19A4601B58A4B3B0
19A460066B4B76B0
19A46000B4A85BB0
19A460004994B5C0
ENDCHAR
STARTCHAR Eng
ENCODING 330
SWIDTH 874 0
DWIDTH 17 0
BBX 17 24 0 -7
BITMAP
021120200001121110
1F4B57A300065B8480
1BB67A4B00065B8480
1967A4B670065B8480
195B4A66B2065B8480
19A3A76B4B065B8480
19A285B4A7665B8480
19A46B4A76B75B8480
19A474985B485B8480
19A47894B4A65B8480
19A47B1B58875B8480
19A47B0589475B8480
19A47B00A4B65B8480
19A47B002B675B8480
19A47B0006665B8480
19A47B0000B65B8480
19A47B0000365B8480
000000000008499470
0000000008A975B650
000000000458966B10
000000000674796700
0000000008AA579000
000000000578B60000
000000000342000000
ENDCHAR
STARTCHAR eng
ENCODING 331
SWIDTH 691 0
DWIDTH 14 0
BBX 13 21 0 -6
BITMAP
01001010010010
1E4A76B10948B0
1CA85B490948B0
1994B58A3948B0
195B67A4A948B0
19A76B4A8A48B0
19A1B4985948B0
19A47894B948B0
19A46A4B6A48B0
19A462A75948B0
19A46085B948B0
19A4601B5948B0
19A460066948B0
19A46000B948B0
19A460003948B0
000000000947B0
000000003B65A0
0000000284B570
00000002BA4B00
0000000158A100
00000002630000
ENDCHAR
STARTCHAR Omacron
ENCODING 332
SWIDTH 933 0
DWIDTH 19 0
BBX 19 18 0 -1
BITMAP
0000015ABBB840000000
00006B6456548B300000
000975B85459A4A50000
0086975ABAB94A5A3000
039869858974B5A4B000
0A498698214B5A4B6600
1A94A7500000A4B74A00
56B75B0000001A948B00
65A9580000000B74A910
65A9580000000B74AA10
46B65B00000029A48B00
1A84B5700001B4A84A00
0A4A686A546A4B3B7500
02A687A46755B4B3B000
00687A49BBB75B4B2000
000794AA778B84B30000
00004B844445A9100000
000000379A9610000000
ENDCHAR
STARTCHAR omacron
ENCODING 333
SWIDTH 833 0
DWIDTH 17 0
BBX 16 16 0 -1
BITMAP
0000038ABA610000
0002A845545B7000
003B4AA668B76A00
01B4B49AAB66A580
094B4B47856A58A2
1A84B4B537A67A48
56B65C100067B56B
65A94800000B848B
65A94800001B948B
46B65C100076B56B
1B85B4C648A67A48
094B4B46747967A2
01B4B48AAA579670
003B49A778B67900
0002A944446B6000
00000279A9510000
ENDCHAR
STARTCHAR Obreve
ENCODING 334
SWIDTH 933 0
DWIDTH 19 0
BBX 19 22 0 -1
BITMAP
00000011001100000000
0000007685A820000000
00000019778700000000
00000000342000000000
0000015ABBB840000000
00006B6456548B300000
000975B85459A4A50000
0086975ABAB94A5A3000
039869858974B5A4B000
0A498698214B5A4B6600
1A94A7500000A4B74A00
56B75B0000001A948B00
65A9580000000B74A910
65A9580000000B74AA10
46B65B00000029A48B00
1A84B5700001B4A84A00
0A4A686A546A4B3B7500
02A687A46755B4B3B000
00687A49BBB75B4B2000
000794AA778B84B30000
00004B844445A9100000
000000379A9610000000
ENDCHAR
STARTCHAR obreve
ENCODING 335
SWIDTH 833 0
DWIDTH 17 0
BBX 16 20 0 -1
BITMAP
0000011001100000
000008685A810000
0000019778600000
0000000341000000
0000038ABA610000
0002A845545B7000
003B4AA668B76A00
01B4B49AAB66A580
094B4B47856A58A2
1A84B4B537A67A48
56B65C100067B56B
65A94800000B848B
65A94800001B948B
46B65C100076B56B
1B85B4C648A67A48
094B4B46747967A2
01B4B48AAA579670
003B49A778B67900
0002A944446B6000
00000279A9510000
ENDCHAR
STARTCHAR Ohungarumlaut
ENCODING 336
SWIDTH 933 0
DWIDTH 19 0
BBX 20 24 0 -1
BITMAP
00000000169000004A10
00000017B56A005B74A3
000017B56B615B74A920
0000756B600575B81000
00000760000038100000
00000000000000000000
0000015ABBB840000000
00006B6456548B300000
000975B85459A4A50000
0086975ABAB94A5A3000
039869858974B5A4B000
0A498698214B5A4B6600
1A94A7500000A4B74A00
56B75B0000001A948B00
65A9580000000B74A910
65A9580000000B74AA10
46B65B00000029A48B00
1A84B5700001B4A84A00
0A4A686A546A4B3B7500
02A687A46755B4B3B000
00687A49BBB75B4B2000
000794AA778B84B30000
00004B844445A9100000
000000379A9610000000
ENDCHAR
STARTCHAR ohungarumlaut
ENCODING 337
SWIDTH 833 0
DWIDTH 17 0
BBX 19 22 0 -1
BITMAP
0000000179000005A100
0000017B56A005B74A20
00018B56B615B75B8100
000857B600565B810000
00007500000471000000
00000000000000000000
0000038ABA6100000000
0002A845545B70000000
003B4AA668B76A000000
01B4B49AAB66A5800000
094B4B47856A58A20000
1A84B4B537A67A480000
56B65C100067B56B0000
65A94800000B848B0000
65A94800001B948B0000
46B65C100076B56B0000
1B85B4C648A67A480000
094B4B46747967A20000
01B4B48AAA5796700000
003B49A778B679000000
0002A944446B60000000
00000279A95100000000
ENDCHAR
STARTCHAR OE
ENCODING 338
SWIDTH 1317 0
DWIDTH 26 0
BBX 26 18 0 -1
BITMAP
0000015ABBB940112233333332
00006B6457548B74B998888885
000975B8545AA484B9BBBBBBB6
0086975ABAB94A84B965555553
039859858974A574B965555553
0A4986A8214B5A84B920000000
1A94A7500000A494B920000000
56B75A0000002964B9BBBA0000
64A9570000000B64B977760000
65A9580000000B64B964440000
46B65B0000003964B9BAAA0000
1A84B5700001B494B920000000
0A4A686A546A4B84B920000000
02A687A46755B484B998888885
00687949BBB65B84B964444443
000794AA778B8484B9A9999995
00004B844445A974B9BBBBBBB6
000000379A9610000000000000
ENDCHAR
STARTCHAR oe
ENCODING 339
SWIDTH 1174 0
DWIDTH 23 0
BBX 23 16 0 -1
BITMAP
0000038ABA61001111111110
0002A845545B749BAAAAAA70
003B4AA668B7849BAAAAAA70
01B4B09ABB66649B44444430
094B3B17847A849B77777750
1A83B3B537A5A49B00000000
56B65C100067849BBBBBBB30
65A92800000B849B66666620
65A91800001B849B55555510
46B65C100076849BBBBBBB30
1B83B2C648A6A49B00000000
094B2B267389849B88888850
01B4B18ABA47649B44444430
003B49A778B6849B99999960
0002A944446B749BBBBBBB70
00000279A951000000000000
ENDCHAR
STARTCHAR Racute
ENCODING 340
SWIDTH 843 0
DWIDTH 17 0
BBX 17 23 0 0
BITMAP
000000001690000000
00000017B56A000000
000017B56B60000000
0000756B6000000000
000007600000000000
000000000000000000
033333333321000000
1C888888888AA40000
198BBBBBBBA9497000
19A255555554979400
19A49555556A785B00
19A46CBBBBB794A920
19A46B00000A56A740
19A46B57778B75B830
19A46B344445A57B00
19A46B8AAA964A6800
19A46B8AAAAB85B100
19A46B344456BB1000
19A46B578CD97B0000
19A46B000B75AA2000
19A46B000859A57000
19A46B00038B66B000
19A46B0000B75A9200
ENDCHAR
STARTCHAR Rcommaaccent
ENCODING 342
SWIDTH 843 0
DWIDTH 17 0
BBX 17 25 0 -8
BITMAP
033333333321000000
1C888888888AA40000
198BBBBBBBA9497000
19A255555554979400
19A49555556A785B00
19A46CBBBBB794A920
19A46B00000A56A740
19A46B57778B75B830
19A46B344445A57B00
19A46B8AAA964A6800
19A46B8AAAAB85B100
19A46B344456BB1000
19A46B578CD97B0000
19A46B000B75AA2000
19A46B000859A57000
19A46B00038B66B000
19A46B0000B75A9200
000000000000000000
000000534600000000
000000947B00000000
000000947B00000000
000000247B00000000
0000004B3B00000000
000000338600000000
0000007A5000000000
ENDCHAR
STARTCHAR rcommaaccent
ENCODING 343
SWIDTH 831 0
DWIDTH 17 0
BBX 16 23 0 -8
BITMAP
0111111111100000
1DAAAAAAAAAB9200
197AAAAAAAA84B50
19A244444445B5B2
19A4A777777B5B49
19A46BBBBBB5B47B
19A46B12223B948B
19A46B799984B56B
19A46B8BBBBA4B58
19A46B455558B4C1
19A46B5666646C30
19A46B8BCCCEB400
19A46B0066A95900
19A46B001A958B10
19A46B000A58B660
0000000000000000
0000006534000000
000000B948000000
000000B948000000
0000002948000000
0000007B56000000
00000043B1000000
000000A820000000
ENDCHAR
STARTCHAR Rcaron
ENCODING 344
SWIDTH 843 0
DWIDTH 17 0
BBX 17 23 0 0
BITMAP
002781937000000000
000B56A93000000000
0006585B0000000000
0001AB660000000000
000097A10000000000
000000000000000000
033333333321000000
1C888888888AA40000
198BBBBBBBA9497000
19A255555554979400
19A49555556A785B00
19A46CBBBBB794A920
19A46B00000A56A740
19A46B57778B75B830
19A46B344445A57B00
19A46B8AAA964A6800
19A46B8AAAAB85B100
19A46B344456BB1000
19A46B578CD97B0000
19A46B000B75AA2000
19A46B000859A57000
19A46B00038B66B000
19A46B0000B75A9200
ENDCHAR
STARTCHAR rcaron
ENCODING 345
SWIDTH 831 0
DWIDTH 17 0
BBX 16 21 0 0
BITMAP
0000054909540000
000001A867B00000
000000A2A4800000
00000049A9200000
0000000C4A000000
0000000000000000
0111111111100000
1DAAAAAAAAAB9200
197AAAAAAAA84B50
19A244444445B5B2
19A4A777777B5B49
19A46BBBBBB5B47B
19A46B12223B948B
19A46B799984B56B
19A46B8BBBBA4B58
19A46B455558B4C1
19A46B5666646C30
19A46B8BCCCEB400
19A46B0066A95900
19A46B001A958B10
19A46B000A58B660
ENDCHAR
STARTCHAR Sacute
ENCODING 346
SWIDTH 682 0
DWIDTH 14 0
BBX 14 24 0 -1
BITMAP
00000000005A10
000000005B74A2
0000005B75B810
00000565B81000
00000048100000
00000000000000
00027ABBB84000
006B5576547B40
0596C75569A480
0B586BAAAA4600
47B49599845000
65B84A11230000
56B74C88730000
29A4B54459B100
0B4B4789B94B00
03B4ABBA84B670
003B96554A75B0
000025679948B0
000164359948B0
002746765A65B0
03759ABA84B670
475BA768AA4B00
05B7444449A100
000479AA730000
ENDCHAR
STARTCHAR sacute
ENCODING 347
SWIDTH 683 0
DWIDTH 14 0
BBX 14 22 0 -1
BITMAP
00000000005A10
000000005B74A2
0000005B75B810
00000565B81000
00000048100000
00000000000000
00002566410000
004A965569B600
05A4ABBBBA56A0
1B594799747A10
56B59322378000
65B84000000000
38A49ABBA83000
0B4AA765449800
01B744556A7760
00048ABAA785B0
000000000949A0
002B74336B57B0
13B5578756B490
3B56ABBBB75B10
017B97668B8100
00002454300000
ENDCHAR
STARTCHAR Scircumflex
ENCODING 348
SWIDTH 682 0
DWIDTH 14 0
BBX 13 24 0 -1
BITMAP
00000688100000
00000BB5700000
00004766B00000
0000A47B740000
00019739490000
00000000000000
00027ABBB84000
006B5576547B40
0596C75569A480
0B586BAAAA4600
47B49599845000
65B84A11230000
56B74C88730000
29A4B54459B100
0B4B4789B94B00
03B4ABBA84B670
003B96554A75B0
000025679948B0
000164359948B0
002746765A65B0
03759ABA84B670
475BA768AA4B00
05B7444449A100
000479AA730000
ENDCHAR
STARTCHAR scircumflex
ENCODING 349
SWIDTH 683 0
DWIDTH 14 0
BBX 13 22 0 -1
BITMAP
00000688200000
00000BB5700000
00004866B00000
0000947B740000
0001A739490000
00000000000000
00002566410000
004A965569B600
05A4ABBBBA56A0
1B594799747A10
56B59322378000
65B84000000000
38A49ABBA83000
0B4AA765449800
01B744556A7760
00048ABAA785B0
000000000949A0
002B74336B57B0
13B5578756B490
3B56ABBBB75B10
017B97668B8100
00002454300000
ENDCHAR
STARTCHAR Scedilla
ENCODING 350
SWIDTH 682 0
DWIDTH 14 0
BBX 13 24 0 -7
BITMAP
00027ABBB84000
006B5576547B40
0596C75569A480
0B586BAAAA4600
47B49599845000
65B84A11230000
56B74C88730000
29A4B54459B100
0B4B4789B94B00
03B4ABBA84B670
003B96554A75B0
000025679948B0
000164359948B0
002746765A65B0
03759ABA84B670
475BA768AA4B00
05B7444449A100
00048FFF730000
0002B73B000000
00093AAA000000
000A4700000000
00093C98000000
0004B444000000
00002687000000
ENDCHAR
STARTCHAR scedilla
ENCODING 351
SWIDTH 683 0
DWIDTH 14 0
BBX 13 22 0 -7
BITMAP
00002566410000
004A965569B600
05A4ABBBBA56A0
1B594799747A10
56B59322378000
65B84000000000
38A49ABBA83000
0B4AA765449800
01B744556A7760
00048ABAA785B0
000000000949A0
002B74336B57B0
13B5578756B490
3B56ABBBB75B10
017B97668B8100
000029BE300000
0002B73B000000
00084AAA000000
000A4700000000
00093C98000000
0003B444000000
00002687000000
ENDCHAR
STARTCHAR Scaron
ENCODING 352
SWIDTH 682 0
DWIDTH 14 0
BBX 13 24 0 -1
BITMAP
00009546490000
0000848B570000
00002948A10000
00000BA4A00000
000005B7400000
00000000000000
00027ABBB84000
006B5576547B40
0596C75569A480
0B586BAAAA4600
47B49599845000
65B84A11230000
56B74C88730000
29A4B54459B100
0B4B4789B94B00
03B4ABBA84B670
003B96554A75B0
000025679948B0
000164359948B0
002746765A65B0
03759ABA84B670
475BA768AA4B00
05B7444449A100
000479AA730000
ENDCHAR
STARTCHAR scaron
ENCODING 353
SWIDTH 683 0
DWIDTH 14 0
BBX 13 22 0 -1
BITMAP
00009546490000
0000848B570000
00002948A10000
00000BA4A00000
000005B7400000
00000000000000
00002566410000
004A965569B600
05A4ABBBBA56A0
1B594799747A10
56B59322378000
65B84000000000
38A49ABBA83000
0B4AA765449800
01B744556A7760
00048ABAA785B0
000000000949A0
002B74336B57B0
13B5578756B490
3B56ABBBB75B10
017B97668B8100
00002454300000
ENDCHAR
STARTCHAR Tcommaaccent
ENCODING 354
SWIDTH 591 0
DWIDTH 12 0
BBX 12 24 0 -7
BITMAP
133333333330
388888888881
4BBBBBBBBBB1
255555555551
255B8AC98551
000948B65000
000948B65000
000948B65000
000948B65000
000948B65000
000948B65000
000948B65000
000948B65000
000948B65000
000948B65000
000948B65000
000948B65000
000047A00000
001B73B00000
0074AAB00000
009480000000
0083C9800000
003B54400000
000268700000
ENDCHAR
STARTCHAR tcommaaccent
ENCODING 355
SWIDTH 588 0
DWIDTH 12 0
BBX 12 22 0 -7
BITMAP
011111111110
4AAAAAAAAAA1
4AAAAAAAAAA1
244444444441
377888988771
000948B65000
000948B65000
000948B65000
000948B65000
000948B65000
000948B65000
000948B65000
000948B65000
000948B65000
000948B65000
000057A00000
002B73B00000
0084AAA00000
009480000000
0083C9800000
003B44400000
000268700000
ENDCHAR
STARTCHAR Tcaron
ENCODING 356
SWIDTH 591 0
DWIDTH 12 0
BBX 12 23 0 0
BITMAP
000963739000
000948B66000
0003857B1000
0000BA490000
00006A830000
000000000000
133333333330
388888888881
4BBBBBBBBBB1
255555555551
255B8AC98551
000948B65000
000948B65000
000948B65000
000948B65000
000948B65000
000948B65000
000948B65000
000948B65000
000948B65000
000948B65000
000948B65000
000948B65000
ENDCHAR
STARTCHAR tcaron
ENCODING 357
SWIDTH 842 0
DWIDTH 17 0
BBX 17 15 0 0
BITMAP
011111111110336410
4AAAAAAAAAA165B820
4AAAAAAAAAA165B820
24444444444121B820
377888988771287A10
000948B65000244A00
000948B650004A7100
000948B65000000000
000948B65000000000
000948B65000000000
000948B65000000000
000948B65000000000
000948B65000000000
000948B65000000000
000948B65000000000
ENDCHAR
STARTCHAR Tbar
ENCODING 358
SWIDTH 591 0
DWIDTH 12 0
BBX 12 17 0 0
BITMAP
133333333330
388888888881
4BBBBBBBBBB1
255555555551
255B8AC98551
000948B65000
000948B65000
4BB948B62BB1
377948B63771
122948B64220
399948B67991
000948B65000
000948B65000
000948B65000
000948B65000
000948B65000
000948B65000
ENDCHAR
STARTCHAR tbar
ENCODING 359
SWIDTH 588 0
DWIDTH 12 0
BBX 12 15 0 0
BITMAP
011111111110
4AAAAAAAAAA1
4AAAAAAAAAA1
244444444441
377888988771
000948B65000
000948B65000
144948B64440
277948B63771
4BB948B62BB1
277948B67770
144948B66440
000948B65000
000948B65000
000948B65000
ENDCHAR
STARTCHAR Utilde
ENCODING 360
SWIDTH 905 0
DWIDTH 18 0
BBX 18 23 0 -1
BITMAP
00006ABBBBB5268000
000773555555A4B000
000B4A555555377000
0008625BBBBBA60000
000000000000000000
012112000000211211
38B65B000000B46B73
38B65B000000B46B73
38B65B000000B46B73
38B65B000000B46B73
38B65B000000B46B73
38B65B000000B46B73
38B65B000000B46B73
38B65B000000B46B73
38B65B000000B46B73
29B56B000000B65B83
0B84A85000058A48A1
0A4985A9549A5894B0
049869847748A59840
0085975ABBA57A5800
000975B9779B579000
00005B744447B60000
00000058AA85100000
ENDCHAR
STARTCHAR utilde
ENCODING 361
SWIDTH 795 0
DWIDTH 16 0
BBX 16 21 0 -1
BITMAP
0007ABBBBB435800
00863555555B3B00
00B5A55555538600
008715BBBBBA5000
0000000000000000
0010010000100110
38B65B0000B74AA1
38B65B0000B74AA1
38B65B0000B74AA1
38B65B0000B74AA1
38B65B0000B74AA1
38B65B0000B74AA1
38B65B0000B74AA1
38B65B0000B74AA1
29A56B0001A858B0
0B75B4A45B3B65B0
094B5B4664B4B570
02B5A4ABB94B4B00
004B4A977AA4B300
0003B844449A2000
0000048AA8300000
ENDCHAR
STARTCHAR Umacron
ENCODING 362
SWIDTH 905 0
DWIDTH 18 0
BBX 18 18 0 -1
BITMAP
012112000000211211
38B65B000000B46B73
38B65B000000B46B73
38B65B000000B46B73
38B65B000000B46B73
38B65B000000B46B73
38B65B000000B46B73
38B65B000000B46B73
38B65B000000B46B73
38B65B000000B46B73
29B56B000000B65B83
0B84A85000058A48A1
0A4985A9549A5894B0
049869847748A59840
0085975ABBA57A5800
000975B9779B579000
00005B744447B60000
00000058AA85100000
ENDCHAR
STARTCHAR umacron
ENCODING 363
SWIDTH 795 0
DWIDTH 16 0
BBX 16 16 0 -1
BITMAP
0010010000100110
38B65B0000B74AA1
38B65B0000B74AA1
38B65B0000B74AA1
38B65B0000B74AA1
38B65B0000B74AA1
38B65B0000B74AA1
38B65B0000B74AA1
38B65B0000B74AA1
29A56B0001A858B0
0B75B4A45B3B65B0
094B5B4664B4B570
02B5A4ABB94B4B00
004B4A977AA4B300
0003B844449A2000
0000048AA8300000
ENDCHAR
STARTCHAR Ubreve
ENCODING 364
SWIDTH 905 0
DWIDTH 18 0
BBX 18 22 0 -1
BITMAP
000000110011000000
000000986689000000
000000397793000000
000000014410000000
012112000000211211
38B65B000000B46B73
38B65B000000B46B73
38B65B000000B46B73
38B65B000000B46B73
38B65B000000B46B73
38B65B000000B46B73
38B65B000000B46B73
38B65B000000B46B73
38B65B000000B46B73
29B56B000000B65B83
0B84A85000058A48A1
0A4985A9549A5894B0
049869847748A59840
0085975ABBA57A5800
000975B9779B579000
00005B744447B60000
00000058AA85100000
ENDCHAR
STARTCHAR ubreve
ENCODING 365
SWIDTH 795 0
DWIDTH 16 0
BBX 16 20 0 -1
BITMAP
0000011001100000
0000099677900000
0000048779300000
0000001440000000
0010010000100110
38B65B0000B74AA1
38B65B0000B74AA1
38B65B0000B74AA1
38B65B0000B74AA1
38B65B0000B74AA1
38B65B0000B74AA1
38B65B0000B74AA1
38B65B0000B74AA1
29A56B0001A858B0
0B75B4A45B3B65B0
094B5B4664B4B570
02B5A4ABB94B4B00
004B4A977AA4B300
0003B844449A2000
0000048AA8300000
ENDCHAR
STARTCHAR Uring
ENCODING 366
SWIDTH 905 0
DWIDTH 18 0
BBX 18 24 0 -1
BITMAP
000000038830000000
000000397783000000
000000873278000000
000000875478000000
000000296692000000
000000017710000000
012112000000211211
38B65B000000B46B73
38B65B000000B46B73
38B65B000000B46B73
38B65B000000B46B73
38B65B000000B46B73
38B65B000000B46B73
38B65B000000B46B73
38B65B000000B46B73
38B65B000000B46B73
29B56B000000B65B83
0B84A85000058A48A1
0A4985A9549A5894B0
049869847748A59840
0085975ABBA57A5800
000975B9779B579000
00005B744447B60000
00000058AA85100000
ENDCHAR
STARTCHAR uring
ENCODING 367
SWIDTH 795 0
DWIDTH 16 0
BBX 16 22 0 -1
BITMAP
0000004883000000
0000048779200000
0000098237800000
0000087467700000
0000029769100000
0000002761000000
0010010000100110
38B65B0000B74AA1
38B65B0000B74AA1
38B65B0000B74AA1
38B65B0000B74AA1
38B65B0000B74AA1
38B65B0000B74AA1
38B65B0000B74AA1
38B65B0000B74AA1
29A56B0001A858B0
0B75B4A45B3B65B0
094B5B4664B4B570
02B5A4ABB94B4B00
004B4A977AA4B300
0003B844449A2000
0000048AA8300000
ENDCHAR
STARTCHAR Uhungarumlaut
ENCODING 368
SWIDTH 905 0
DWIDTH 18 0
BBX 19 24 0 -1
BITMAP
00000000296000017900
00000029A487017B56A0
000029A48B417B56B600
0001948A400756B60000
00000930000075000000
00000000000000000000
01211200000021121100
38B65B000000B46B7300
38B65B000000B46B7300
38B65B000000B46B7300
38B65B000000B46B7300
38B65B000000B46B7300
38B65B000000B46B7300
38B65B000000B46B7300
38B65B000000B46B7300
38B65B000000B46B7300
29B56B000000B65B8300
0B84A85000058A48A100
0A4985A9549A5894B000
049869847748A5984000
0085975ABBA57A580000
000975B9779B57900000
00005B744447B6000000
00000058AA8510000000
ENDCHAR
STARTCHAR uhungarumlaut
ENCODING 369
SWIDTH 795 0
DWIDTH 16 0
BBX 18 22 0 -1
BITMAP
000000029500001780
000003A9496018B569
0003A949A318B57B60
002849A300847B5000
000193000007500000
000000000000000000
001001000010011000
38B65B0000B74AA100
38B65B0000B74AA100
38B65B0000B74AA100
38B65B0000B74AA100
38B65B0000B74AA100
38B65B0000B74AA100
38B65B0000B74AA100
38B65B0000B74AA100
29A56B0001A858B000
0B75B4A45B3B65B000
094B5B4664B4B57000
02B5A4ABB94B4B0000
004B4A977AA4B30000
0003B844449A200000
0000048AA830000000
ENDCHAR
STARTCHAR Uogonek
ENCODING 370
SWIDTH 905 0
DWIDTH 18 0
BBX 18 24 0 -7
BITMAP
012112000000211211
38B65B000000B46B73
38B65B000000B46B73
38B65B000000B46B73
38B65B000000B46B73
38B65B000000B46B73
38B65B000000B46B73
38B65B000000B46B73
38B65B000000B46B73
38B65B000000B46B73
29B56B000000B65B83
0B84A85000058A48A1
0A4985A9549A5894B0
049869847748A59840
0085975ABBA57A5800
000975B9779B579000
00005B744447B60000
0000005DFF85100000
000000683200000000
000000B3B400000000
000000B83200000000
000000B84900000000
000000B84900000000
000000753500000000
ENDCHAR
STARTCHAR uogonek
ENCODING 371
SWIDTH 794 0
DWIDTH 16 0
BBX 16 22 0 -7
BITMAP
0010010000100110
37B64B0000B74AA1
37B64B0000B74AA1
37B64B0000B74AA1
37B64B0000B74AA1
37B64B0000B74AA1
37B64B0000B74AA1
37B64B0000B74AA1
37B64B0000B74AA1
29A56B0002A958B0
0B75B4A45B3B75B0
094B5B4664B4B660
02B5A4ABB94B4B00
004A4A977AA4B200
0003B844549A2000
000004EFD8300000
00000A6410000000
00001A7920000000
000038B110000000
000038B650000000
000038B650000000
0000257430000000
ENDCHAR
STARTCHAR Ycircumflex
ENCODING 374
SWIDTH 789 0
DWIDTH 16 0
BBX 16 23 0 0
BITMAP
0000005972000000
000000BB48000000
000002957B000000
00000847B6500000
00000A6474A00000
0000000000000000
2112110000111211
56A8590000A65A92
0A759920047A7590
065A85900A66A830
00A7599237A65A00
0075A948A56A7300
001A85958A66A000
0007598957A74000
00019949A56A0000
000084A58A650000
00001A9957A00000
00000A59A5600000
00000848B5500000
00000848B5500000
00000848B5500000
00000848B5500000
00000848B5500000
ENDCHAR
STARTCHAR ycircumflex
ENCODING 375
SWIDTH 733 0
DWIDTH 15 0
BBX 15 21 0 0
BITMAP
000000C380000000
000005A8A1000000
00000A1B56000000
000029875B000000
000074A198200000
0000000000000000
1001000001001000
65A859000A65A920
0A75A83046A75900
065A75A0A66A8200
00A65A777A759000
0065B75A56A73000
000A6678A66A0000
00055A957A740000
0000A38A66A00000
00005C57A6500000
00000B848A000000
00000B848B000000
00000B848B000000
00000B848B000000
00000B848B000000
ENDCHAR
STARTCHAR Ydieresis
ENCODING 376
SWIDTH 789 0
DWIDTH 16 0
BBX 16 20 0 0
BITMAP
000A74900A749000
000B74A00B74A000
0002212002212000
2112110000111211
56A8590000A65A92
0A759920047A7590
065A85900A66A830
00A7599237A65A00
0075A948A56A7300
001A85958A66A000
0007598957A74000
00019949A56A0000
000084A58A650000
00001A9957A00000
00000A59A5600000
00000848B5500000
00000848B5500000
00000848B5500000
00000848B5500000
00000848B5500000
ENDCHAR
STARTCHAR Zacute
ENCODING 377
SWIDTH 854 0
DWIDTH 17 0
BBX 17 23 0 0
BITMAP
000000000001870000
00000000018B579000
000000028A47B50000
0000000847B5000000
000000008400000000
000000000000000000
133333333333333310
288888888888889F30
2BBBBBBBBBBB55B420
155555555531985B20
15555555545B4A7530
2BBBBBB82985B4A710
00000004B4975B4A30
000001985B4A76B200
00004B4985B4A70000
001985B4A86B200000
04B4985B4A70000000
385B4986B300000000
1985B4A718BBBBBB30
24985B478888888820
2B5A72344444444410
15B359999999999920
3FBBBBBBBBBBBBBB30
ENDCHAR
STARTCHAR zacute
ENCODING 378
SWIDTH 714 0
DWIDTH 14 0
BBX 14 21 0 0
BITMAP
00000000003A40
000000003A9496
0000003A949A30
000002849A3000
00000019200000
00000000000000
01111111001010
2AAAAAA7B4A675
2AAAAA885B3B56
1444444B67A4A0
177777B4B49830
0000067A4B4900
00001B5985B100
0000A4C3A75000
0004985B3A0000
000C4A67A20000
0086B3B5800000
02B67A4B588884
0B4B4985444442
57A4B4A5999995
44985B5BBBBBB6
ENDCHAR
STARTCHAR Zdotaccent
ENCODING 379
SWIDTH 854 0
DWIDTH 17 0
BBX 17 22 0 0
BITMAP
000000133310000000
000000288820000000
0000003BBB30000000
000000155510000000
000000155510000000
133333333333333310
288888888888889F30
2BBBBBBBBBBB55B420
155555555531985B20
15555555545B4A7530
2BBBBBB82985B4A710
00000004B4975B4A30
000001985B4A76B200
00004B4985B4A70000
001985B4A86B200000
04B4985B4A70000000
385B4986B300000000
1985B4A718BBBBBB30
24985B478888888820
2B5A72344444444410
15B359999999999920
3FBBBBBBBBBBBBBB30
ENDCHAR
STARTCHAR zdotaccent
ENCODING 380
SWIDTH 714 0
DWIDTH 14 0
BBX 14 20 0 0
BITMAP
00000133300000
00000488800000
000006BBA00000
00000355500000
00000355500000
01111111001010
2AAAAAA7B4A675
2AAAAA885B3B56
1444444B67A4A0
177777B4B49830
0000067A4B4900
00001B5985B100
0000A4C3A75000
0004985B3A0000
000C4A67A20000
0086B3B5800000
02B67A4B588884
0B4B4985444442
57A4B4A5999995
44985B5BBBBBB6
ENDCHAR
STARTCHAR Zcaron
ENCODING 381
SWIDTH 854 0
DWIDTH 17 0
BBX 17 23 0 0
BITMAP
000004590954000000
000001B768A1000000
00000093A490000000
00000039A830000000
0000000C5B00000000
000000000000000000
133333333333333310
288888888888889F30
2BBBBBBBBBBB55B420
155555555531985B20
15555555545B4A7530
2BBBBBB82985B4A710
00000004B4975B4A30
000001985B4A76B200
00004B4985B4A70000
001985B4A86B200000
04B4985B4A70000000
385B4986B300000000
1985B4A718BBBBBB30
24985B478888888820
2B5A72344444444410
15B359999999999920
3FBBBBBBBBBBBBBB30
ENDCHAR
STARTCHAR zcaron
ENCODING 382
SWIDTH 714 0
DWIDTH 14 0
BBX 14 21 0 0
BITMAP
00008382781000
000047984A0000
00000B1B650000
00000797B00000
000001E4800000
00000000000000
01111111001010
2AAAAAA7B4A675
2AAAAA885B3B56
1444444B67A4A0
177777B4B49830
0000067A4B4900
00001B5985B100
0000A4C3A75000
0004985B3A0000
000C4A67A20000
0086B3B5800000
02B67A4B588884
0B4B4985444442
57A4B4A5999995
44985B5BBBBBB6
ENDCHAR
STARTCHAR florin
ENCODING 402
SWIDTH 388 0
DWIDTH 8 0
BBX 7 19 0 -2
BITMAP
00018BB0
001B4570
0084B640
00B65BA0
00B74900
13B84940
25B84970
38B849B0
25B84970
13B84940
00B84900
00B84900
00B84900
00B84900
02B84900
394B5600
3BB4B100
157C3000
26400000
ENDCHAR
STARTCHAR uni01C4
ENCODING 452
SWIDTH 1740 0
DWIDTH 35 0
BBX 34 23 0 0
BITMAP
0000000000000000000000073828720000
0000000000000000000000038975B00000
000000000000000000000000B1B6600000
000000000000000000000000697B100000
0000000000000000000000001E48000000
0000000000000000000000000000000000
0333333333200000001333333333333333
2C888888889B91000048888888888888BE
298BBBBBBBA74B30005BBBBBBBBBBA47A4
29B255555555B4B300355555555512B679
29B49555557B4B4B0025555555537A4B58
29B46CBBBBB4B4B7505BBBBBB73B67A4B5
29B46B00001B3A94A000000007A4B57A4B
29B46B0000047B47B0000002B67A4B5891
29B46B000001A949A000006A4B67A4B500
29B46B000001A948A0002A67A4B6891000
29B46B0000057B56B006A4A67A4B500000
29B46B00002B4993A0666A4B67A1000000
29B46ABBBBA4B4A8402A67A4B529BBBBBB
29B4B888889A4B4A0044B67A3888888888
29B244444447B4B2004A4B524444444444
2969999999856B200027A2799999999999
2DBBBBBBBBBB6000007EBBBBBBBBBBBBBB
ENDCHAR
STARTCHAR uni01C5
ENCODING 453
SWIDTH 1601 0
DWIDTH 32 0
BBX 32 21 0 0
BITMAP
00000000000000000000009455490000
0000000000000000000000849B570000
00000000000000000000002939A20000
00000000000000000000000A94A00000
033333333320000000000005C6400000
2C888888889B91000000000000000000
298BBBBBBBA74B300001111110101000
29B255555555B4B3004AAAAAA6B67944
29B49555557B4B4B004AAAAA6B4B4983
29B46CBBBBB4B4B75024444467A4B480
29B46B00001B3A94A0377776B4985A10
29B46B0000047B47B00000094C3A6500
29B46B000001A949A000004985B4A000
29B46B000001A948A00000C4B67A2000
29B46B0000057B56B000086B3B580000
29B46B00002B4993A0002B6794B00000
29B46ABBBBA4B4A84000B4B498400000
29B4B888889A4B4A0006894B4A788883
29B244444447B4B2001C4985B3444441
2969999999856B200084B3B677999993
2DBBBBBBBBBB600000585B4B6BBBBBB3
ENDCHAR
STARTCHAR Scommaaccent
ENCODING 536
SWIDTH 682 0
DWIDTH 14 0
BBX 13 25 0 -8
BITMAP
00027ABBB84000
006B5576547B40
0596C75569A480
0B586BAAAA4600
47B49599845000
65B84A11230000
56B74C88730000
29A4B54459B100
0B4B4789B94B00
03B4ABBA84B670
003B96554A75B0
000025679948B0
000164359948B0
002746765A65B0
03759ABA84B670
475BA768AA4B00
05B7444449A100
000479AA730000
00001563400000
000019A4600000
000019A4600000
000002A4600000
000007A6500000
0000044B100000
00001A82000000
ENDCHAR
STARTCHAR scommaaccent
ENCODING 537
SWIDTH 683 0
DWIDTH 14 0
BBX 13 23 0 -8
BITMAP
00002566410000
004A965569B600
05A4ABBBBA56A0
1B594799747A10
56B59322378000
65B84000000000
38A49ABBA83000
0B4AA765449800
01B744556A7760
00048ABAA785B0
000000000949A0
002B74336B57B0
13B5578756B490
3B56ABBBB75B10
017B97668B8100
00002454300000
00001663400000
00001AA4700000
00001AA4700000
000002A4700000
000007A6500000
0000044B100000
00001A82000000
ENDCHAR
STARTCHAR uni021A
ENCODING 538
SWIDTH 591 0
DWIDTH 12 0
BBX 12 25 0 -8
BITMAP
133333333330
388888888881
4BBBBBBBBBB1
255555555551
255B8AC98551
000948B65000
000948B65000
000948B65000
000948B65000
000948B65000
000948B65000
000948B65000
000948B65000
000948B65000
000948B65000
000948B65000
000948B65000
000000000000
000064360000
0000B74A0000
0000B74A0000
000027490000
00006B380000
000043B30000
000099300000
ENDCHAR
STARTCHAR uni021B
ENCODING 539
SWIDTH 588 0
DWIDTH 12 0
BBX 12 23 0 -8
BITMAP
011111111110
4AAAAAAAAAA1
4AAAAAAAAAA1
244444444441
377888988771
000948B65000
000948B65000
000948B65000
000948B65000
000948B65000
000948B65000
000948B65000
000948B65000
000948B65000
000948B65000
000000000000
000064350000
0000B7490000
0000B7490000
000028490000
00006B380000
000043B30000
000099300000
ENDCHAR
STARTCHAR uni0237
ENCODING 567
SWIDTH 393 0
DWIDTH 8 0
BBX 7 18 0 -3
BITMAP
00100110
00B849B0
00B849B0
00B849B0
00B849B0
00B849B0
00B849B0
00B849B0
00B849B0
00B849B0
00B849B0
039A47B0
695A84A0
49A4A750
247A4A00
5847A100
5BA50000
10000000
ENDCHAR
STARTCHAR circumflex
ENCODING 710
SWIDTH 376 0
DWIDTH 8 0
BBX 7 5 0 15
BITMAP
00778100
00BB5600
04775B00
0A47A830
19839480
ENDCHAR
STARTCHAR caron
ENCODING 711
SWIDTH 362 0
DWIDTH 7 0
BBX 7 5 0 15
BITMAP
36919460
0B669920
07584A00
02AB6500
00A6A000
ENDCHAR
STARTCHAR breve
ENCODING 728
SWIDTH 360 0
DWIDTH 7 0
BBX 7 4 0 15
BITMAP
01000110
38959760
07877900
00243000
ENDCHAR
STARTCHAR dotaccent
ENCODING 729
SWIDTH 255 0
DWIDTH 5 0
BBX 5 5 0 12
BITMAP
033310
288820
2BBB30
155520
155520
ENDCHAR
STARTCHAR ring
ENCODING 730
SWIDTH 330 0
DWIDTH 7 0
BBX 6 6 0 15
BITMAP
018860
0A6867
477099
378299
096775
005730
ENDCHAR
STARTCHAR ogonek
ENCODING 731
SWIDTH 250 0
DWIDTH 5 0
BBX 5 7 0 -6
BITMAP
017A20
0B5410
388810
46B110
46B730
46B730
347520
ENDCHAR
STARTCHAR tilde
ENCODING 732
SWIDTH 665 0
DWIDTH 13 0
BBX 13 4 0 11
BITMAP
018BBBBBB16370
0B44555556B480
29975555553B20
35808BBBBB9300
ENDCHAR
STARTCHAR hungarumlaut
ENCODING 733
SWIDTH 837 0
DWIDTH 17 0
BBX 16 5 0 14
BITMAP
0000029600001790
00029A487017B56A
029A48B417B56B60
1949A400856B6000
0093000007500000
ENDCHAR
STARTCHAR uni0307
ENCODING 775
SWIDTH 260 0
DWIDTH 5 0
BBX 5 5 0 7
BITMAP
144410
177720
2BBB40
177720
144410
ENDCHAR
STARTCHAR uni030F
ENCODING 783
SWIDTH 554 0
DWIDTH 11 0
BBX 11 8 0 14
BITMAP
336004260000
1A83029A2000
0A4900B57000
048A1066B000
00B5601B7400
0075B0094A00
001A83039A10
000211002110
ENDCHAR
STARTCHAR uni0311
ENCODING 785
SWIDTH 375 0
DWIDTH 8 0
BBX 7 4 0 15
BITMAP
00010000
03988800
19899670
12200330
ENDCHAR
STARTCHAR uni0326
ENCODING 806
SWIDTH 274 0
DWIDTH 5 0
BBX 4 7 1 -8
BITMAP
6534
A947
A947
2A47
7B56
43B1
A820
ENDCHAR
STARTCHAR Omega
ENCODING 937
SWIDTH 92 0
DWIDTH 2 0
BBX 1 1 0 0
BITMAP
00
ENDCHAR
STARTCHAR uni00B5.dup2
ENCODING 956
SWIDTH 802 0
DWIDTH 16 0
BBX 16 18 0 -3
BITMAP
0110010000100100
1AA47B0000A46B74
1AA47B0000A46B74
1AA47B0000A46B74
1AA47B0000A46B74
1AA47B0000A46B74
1AA47B0000A46B74
1AA47B0000A46B74
1AA47B0000A46B73
1AA47B0000B65B92
1AA47B444A5B58B0
1AA47B4764B5B490
1AA47B8BBA4A5B20
1AA47B6779A4A400
1AA47B45447B3000
1AA47B7AA8400000
1AA47B0000000000
0110110000000000
ENDCHAR
STARTCHAR pi
ENCODING 960
SWIDTH 92 0
DWIDTH 2 0
BBX 1 1 0 0
BITMAP
00
ENDCHAR
STARTCHAR endash
ENCODING 8211
SWIDTH 473 0
DWIDTH 9 0
BBX 9 4 0 6
BITMAP
1BBBBBBB60
1777777740
1444444430
1AAAAAAA60
ENDCHAR
STARTCHAR emdash
ENCODING 8212
SWIDTH 615 0
DWIDTH 12 0
BBX 12 4 0 6
BITMAP
1BBBBBBBBBB5
177777777773
144444444442
1AAAAAAAAAA5
ENDCHAR
STARTCHAR quoteleft
ENCODING 8216
SWIDTH 254 0
DWIDTH 5 0
BBX 5 8 0 9
BITMAP
000210
04B920
1B3A30
38A200
47B430
47B640
47B640
112110
ENDCHAR
STARTCHAR quoteright
ENCODING 8217
SWIDTH 251 0
DWIDTH 5 0
BBX 5 8 0 9
BITMAP
012110
38B650
38B650
25B650
01B640
2A3B10
29B500
020000
ENDCHAR
STARTCHAR quotesinglbase
ENCODING 8218
SWIDTH 252 0
DWIDTH 5 0
BBX 5 7 0 -3
BITMAP
246320
47B640
47B640
12B640
179830
144B00
2A8100
ENDCHAR
STARTCHAR quotedblleft
ENCODING 8220
SWIDTH 535 0
DWIDTH 11 0
BBX 10 8 0 9
BITMAP
0002100002
04B92008A8
1B3A305759
38A20094A0
47B4309487
47B640948B
47B640948B
1121101112
ENDCHAR
STARTCHAR quotedblright
ENCODING 8221
SWIDTH 532 0
DWIDTH 11 0
BBX 10 8 0 9
BITMAP
0121101112
38B650948B
38B650948B
25B650648B
01B640066B
2A3B10683A
29B5005AB2
0200001100
ENDCHAR
STARTCHAR quotedblbase
ENCODING 8222
SWIDTH 533 0
DWIDTH 11 0
BBX 10 7 0 -3
BITMAP
2463205246
47B640948B
47B640948B
12B640347B
1798303A4B
144B003377
2A81006A60
ENDCHAR
STARTCHAR dagger
ENCODING 8224
SWIDTH 636 0
DWIDTH 13 0
BBX 13 17 0 0
BITMAP
00002211200000
0000B948B00000
0000B948B00000
0000B948B00000
4BBBB948BBBB10
3777B948B77710
2444B948B44410
4999B948B99910
0000B948B00000
0000B948B00000
0000B948B00000
0000B948B00000
0000B948B00000
0000B948B00000
0000B948B00000
0000B948B00000
0000B948B00000
ENDCHAR
STARTCHAR daggerdbl
ENCODING 8225
SWIDTH 648 0
DWIDTH 13 0
BBX 13 17 0 0
BITMAP
00002112200000
0000B74AA10000
0000B74AA10000
0111B74AA21100
2999C74AAA9920
3AAAC74AABAA30
1444B74AA54410
2666B74AA76620
0000B74AA10000
0000B74AA10000
2888C74AA88820
1444B74AA54410
2999C74AA99920
3BBBC74AABBB30
0000B74AA10000
0000B74AA10000
0000B74AA10000
ENDCHAR
STARTCHAR bullet
ENCODING 8226
SWIDTH 501 0
DWIDTH 10 0
BBX 10 10 0 2
BITMAP
0002552000
008A669900
0858BB8590
1A76005892
47B0000B65
47B0000B65
1A770068A2
0867BB7590
008A77A800
0001441000
ENDCHAR
STARTCHAR ellipsis
ENCODING 8230
SWIDTH 676 0
DWIDTH 14 0
BBX 13 4 0 0
BITMAP
28882888468860
14441444244430
29993999579960
2BBB3BBB58BB80
ENDCHAR
STARTCHAR perthousand
ENCODING 8240
SWIDTH 447 0
DWIDTH 9 0
BBX 9 19 0 -2
BITMAP
0000012110
000047B560
000084A920
0000B56B00
0001A84900
00047B5600
00084A9200
000B56B000
001A849000
0047B56000
0084A92000
00B56B0000
01A8490000
047B560000
084A920000
0B56B00000
1A84900000
47B5500000
7498200000
ENDCHAR
STARTCHAR guilsinglleft
ENCODING 8249
SWIDTH 465 0
DWIDTH 9 0
BBX 9 11 0 2
BITMAP
0000000010
0000027B40
0004AA5650
17B749B620
256B947B40
3B65AA4000
17B843B820
2C848B6440
004AA55A50
000017B820
0000000340
ENDCHAR
STARTCHAR guilsinglright
ENCODING 8250
SWIDTH 465 0
DWIDTH 9 0
BBX 9 11 0 2
BITMAP
1100000000
1A93000000
2748B61000
15AA55A930
1B947B8440
0028B64A60
06B727A930
155AA45C60
2B749B6100
16B9300000
2500000000
ENDCHAR
STARTCHAR fraction
ENCODING 8260
SWIDTH 447 0
DWIDTH 9 0
BBX 9 19 0 -2
BITMAP
0000012110
000047B560
000084A920
0000B56B00
0001A84900
00047B5600
00084A9200
000B56B000
001A849000
0047B56000
0084A92000
00B56B0000
01A8490000
047B560000
084A920000
0B56B00000
1A84900000
47B5500000
7498200000
ENDCHAR
STARTCHAR uni2074
ENCODING 8308
SWIDTH 528 0
DWIDTH 11 0
BBX 10 14 0 3
BITMAP
0000211200
00057B4900
000B48A300
0058A4A000
00B4994000
049A4B1220
0B4A8538B0
2874A03690
3BBBBBBBBA
2666666666
2555555555
3BBBBBBBBA
00000037A0
0000003690
ENDCHAR
STARTCHAR Euro
ENCODING 8364
SWIDTH 781 0
DWIDTH 16 0
BBX 16 18 0 -1
BITMAP
000000038BBBA840
000003B845765470
00004B4AA6556A70
0003A5B49BAAB910
000B4B5B47997400
0056B4A5B4123500
00A48A4A00000000
45B84A9788860000
12A957A233320000
34A958A466650000
23B75A8644430000
00949A4B10000000
0048A4B4B6446700
000A4B4B55765510
0002B4C57BBBA710
00003B48B8779B60
0000019A54444591
0000000169AA8510
ENDCHAR
STARTCHAR trademark
ENCODING 8482
SWIDTH 1503 0
DWIDTH 30 0
BBX 30 13 0 4
BITMAP
133333333330112020000000021120
3888888888816B75B10000002984E3
4BBBBBBBBBB26C5B57000000A4A8C3
25555555555166B66B100003994B83
2555CA8B55516585B580000B498583
0000B74A0000658B57B10048A4A883
0000B74A000065B66B4800B4993B83
0000B74A000065B3B58A257A4A3B83
0000B74A000065B877B49948A76B83
0000B74A000065B82B48A3B4956B83
0000B74A000065B8247A4A5A256B83
0000B74A000065B820B49978056B83
0000964800005497204683B1045962
ENDCHAR
STARTCHAR partialdiff
ENCODING 8706
SWIDTH 108 0
DWIDTH 2 0
BBX 1 1 0 0
BITMAP
00
ENDCHAR
STARTCHAR uni2206
ENCODING 8710
SWIDTH 108 0
DWIDTH 2 0
BBX 1 1 0 0
BITMAP
00
ENDCHAR
STARTCHAR product
ENCODING 8719
SWIDTH 521 0
DWIDTH 10 0
BBX 10 15 0 0
BITMAP
0001011000
000D5B6500
0048A84A00
00A3A49920
01A958B480
075B2B56B0
0B66A75B65
47B481A84A
48B581A84A
0B56B65B74
075B7656B0
01A84A9580
00A49A3A20
0047B49A00
000B56D500
ENDCHAR
STARTCHAR summation
ENCODING 8721
SWIDTH 108 0
DWIDTH 2 0
BBX 1 1 0 0
BITMAP
00
ENDCHAR
STARTCHAR minus
ENCODING 8722
SWIDTH 555 0
DWIDTH 11 0
BBX 11 4 0 7
BITMAP
188888888820
144444444410
188888888820
1BBBBBBBBB30
ENDCHAR
STARTCHAR radical
ENCODING 8730
SWIDTH 108 0
DWIDTH 2 0
BBX 1 1 0 0
BITMAP
00
ENDCHAR
STARTCHAR infinity
ENCODING 8734
SWIDTH 108 0
DWIDTH 2 0
BBX 1 1 0 0
BITMAP
00
ENDCHAR
STARTCHAR integral
ENCODING 8747
SWIDTH 362 0
DWIDTH 7 0
BBX 7 19 0 -2
BITMAP
00029B80
003B4650
00B4B530
01A94C80
028B5600
028B5600
028B5600
028B5600
028B5600
028B5600
028B5600
028B5600
028B5600
028B5600
158B6500
584A8300
6BA4B000
258B1000
36300000
ENDCHAR
STARTCHAR approxequal
ENCODING 8776
SWIDTH 665 0
DWIDTH 13 0
BBX 13 9 0 6
BITMAP
018BBBBBB16370
0B44555556B480
29975555553B20
35808BBBBB9300
00000000000000
018BBBBBB16370
0B44555556B480
29975555553B20
35808BBBBB9300
ENDCHAR
STARTCHAR notequal
ENCODING 8800
SWIDTH 473 0
DWIDTH 9 0
BBX 9 19 0 -2
BITMAP
0000012110
000047B560
000084A920
0000B56B00
0001A84900
1BBFFFFF60
188FDFFA50
144F9BF430
189FFCF850
0047B56000
15D9FE7530
15FACF5530
1BFFFFBB60
1CFFDE8850
0B7CC43320
0B56B00000
1A84900000
47B5500000
7498200000
ENDCHAR
STARTCHAR lessequal
ENCODING 8804
SWIDTH 108 0
DWIDTH 2 0
BBX 1 1 0 0
BITMAP
00
ENDCHAR
STARTCHAR greaterequal
ENCODING 8805
SWIDTH 108 0
DWIDTH 2 0
BBX 1 1 0 0
BITMAP
00
ENDCHAR
STARTCHAR lozenge
ENCODING 9674
SWIDTH 521 0
DWIDTH 10 0
BBX 10 15 0 0
BITMAP
0001011000
000D5B6500
0048A84A00
00A3A49920
01A958B480
075B2B56B0
0B66A75B65
47B481A84A
48B581A84A
0B56B65B74
075B7656B0
01A84A9580
00A49A3A20
0047B49A00
000B56D500
ENDCHAR
STARTCHAR uniF8FF
ENCODING 63743
SWIDTH 108 0
DWIDTH 2 0
BBX 1 1 0 0
BITMAP
00
ENDCHAR
STARTCHAR uniFB01
ENCODING 64257
SWIDTH 962 0
DWIDTH 19 0
BBX 19 15 0 0
BITMAP
01100111111101001000
19A47CAAAAA80948B550
19A47CAAAAA80948B550
19A47B4444440948B550
19A47C7777760948B550
19A47B0000000948B550
19A47C6666620948B550
19A47B4444420948B550
19A47CBBBBB40948B550
19A47C9999930948B550
19A47B2222210948B550
19A47B0000000948B550
19A47B0000000948B550
19A47B0000000948B550
19A47B0000000948B550
ENDCHAR
STARTCHAR uniFB02
ENCODING 64258
SWIDTH 1208 0
DWIDTH 24 0
BBX 24 15 0 0
BITMAP
011001111111010010000000
19A47CAAAAA80948B5500000
19A47CAAAAA80948B5500000
19A47B4444440948B5500000
19A47C7777760948B5500000
19A47B0000000948B5500000
19A47C6666620948B5500000
19A47B4444420948B5500000
19A47CBBBBB40948B5500000
19A47C9999930948B5500000
19A47B2222210948B5500000
19A47B0000000948B5A88884
19A47B0000000948B5844442
19A47B0000000948B5B99995
19A47B0000000948B5CBBBB6
ENDCHAR
STARTCHAR .notdef
ENCODING -1
SWIDTH 108 0
DWIDTH 2 0
BBX 1 1 0 0
BITMAP
00
ENDCHAR
ENDFONT
